<?xml version="1.0" encoding="utf-8"?>
<!-- Generator: Adobe Illustrator 28.0.0, SVG Export Plug-In . SVG Version: 6.00 Build 0)  -->
<svg version="1.1" id="Calque_1" xmlns="http://www.w3.org/2000/svg" xmlns:xlink="http://www.w3.org/1999/xlink" x="0px" y="0px"
	 width="1397.6px" height="636.2px" viewBox="0 0 1397.6 636.2" style="enable-background:new 0 0 1397.6 636.2;"
	 xml:space="preserve">
<style type="text/css">
	.st0{fill:#153E8C;}
	.st1{opacity:0.2;}
	.st2{fill:#FFFFFF;}
	.st3{fill:#E84E0F;}
	.st4{fill:#FBBA00;}
</style>
<g id="BACKGROUND">
</g>
<g id="OBJECTS">
	<path class="st0" d="M1399.8,410.1V53.7h-104.9l-31.1,13.7l-31.3-13.7H2.2v356.4H1399.8z"/>
</g>
<g id="Calque_3">
</g>
<g id="OBJECTS_00000062166480327187472540000013943599592256441746_" class="st1">
	<g>
		<polygon class="st2" points="221.1,192.3 179.5,170.9 137.8,192.3 179.5,210.4 		"/>
		<polygon class="st2" points="316,103.8 316,146.4 357.6,167.8 357.7,167.7 357.7,121.9 		"/>
		<polygon class="st2" points="133.6,193.4 92,211.5 92,257.3 133.6,236 		"/>
		<polygon class="st2" points="86.6,123.1 45,101.8 3.4,123.1 45.1,141.2 		"/>
		<polygon class="st2" points="1.1,125.4 1.1,168 42.9,189.3 43,189.3 43,143.5 		"/>
		<polygon class="st2" points="87.8,125.5 46.3,143.6 46.3,189.4 87.8,168.1 		"/>
		<polygon class="st2" points="176.7,123.1 135.1,101.8 93.5,123.1 135.2,141.2 		"/>
		<polygon class="st2" points="177.9,125.5 136.4,143.6 136.4,189.4 177.9,168.1 		"/>
		<polygon class="st2" points="180.8,125.4 180.8,168 222.4,189.3 222.5,189.3 222.5,143.5 		"/>
		<polygon class="st2" points="267.3,125.5 225.8,143.6 225.8,189.4 267.3,168.1 		"/>
		<g>
			<polygon class="st2" points="41.5,54.2 1.1,54.2 1.1,72.1 			"/>
		</g>
		<g>
			<polygon class="st2" points="130.9,54.2 47.7,54.2 89.4,72.4 			"/>
			<polygon class="st2" points="46.7,56.5 46.7,99.2 88.3,120.5 88.4,120.4 88.4,74.7 			"/>
		</g>
		<g>
			<polygon class="st2" points="47,241.5 47,284.2 88.6,305.5 88.7,305.4 88.7,259.7 			"/>
		</g>
		<g>
			<polygon class="st2" points="310.8,54.2 227.6,54.2 269.3,72.4 			"/>
			<polygon class="st2" points="225.5,56.5 225.5,99.2 267.1,120.5 267.2,120.4 267.2,74.7 			"/>
			<polygon class="st2" points="312,56.6 270.5,74.8 270.5,120.5 312,99.3 			"/>
		</g>
		<g>
			<polygon class="st2" points="221.4,54.2 138.2,54.2 179.9,72.4 			"/>
			<polygon class="st2" points="222.6,56.6 181.1,74.8 181.1,120.5 222.6,99.3 			"/>
		</g>
	</g>
</g>
<g id="Calque_3_00000001645604169299169170000009434074641356778891_">
</g>
<polygon class="st3" points="91.4,125.4 91.4,168 133,189.3 133.1,189.3 133.1,143.5 "/>
<polygon class="st4" points="177.4,259.5 135.8,238.2 94.2,259.5 135.9,277.7 "/>
</svg>
