<?xml version="1.0" encoding="utf-8"?>
<!-- Generator: Adobe Illustrator 28.0.0, SVG Export Plug-In . SVG Version: 6.00 Build 0)  -->
<svg version="1.1" xmlns="http://www.w3.org/2000/svg" xmlns:xlink="http://www.w3.org/1999/xlink" x="0px" y="0px"
	 viewBox="0 0 595.28 144.45" style="enable-background:new 0 0 595.28 144.45;" xml:space="preserve">
<style type="text/css">
	.st0{fill:#FBBA00;}
	.st1{fill:url(#SVGID_1_);}
	.st2{fill:#FFFFFF;}
	.st3{fill:#153E8C;}
	.st4{fill:#E84E0F;}
	.st5{fill:none;}
</style>
<g id="BACKGROUND">
</g>
<g id="OBJECTS">
	<path class="st3" d="M300.99,56.02c4.85-1.88,7.29-5.58,7.29-11.13c0-7.46-4.35-11.19-13.06-11.19h-6.26
		c-3.24,0-4.87-1.49-4.87-4.47c0-3.92,3.36-5.87,10.07-5.87c4.47,0,8.72,0.75,12.72,2.24v-6.71c-4.01-1.3-8.25-1.96-12.72-1.96
		c-11.65,0-17.48,4.1-17.48,12.31c0,7.46,4.09,11.19,12.28,11.19h6.26c3.77,0,5.65,1.49,5.65,4.47c0,4.1-3.07,6.15-9.2,6.15
		c-5.05,0-9.58-0.75-13.59-2.24v6.71c0.56,0.18,1.13,0.35,1.71,0.5h-7.46v-5.26h-20.5V40.28h19.16v-6.63H251.9V23.58h20.02V17.2
		h-27.38v38.82h-5.19L224.56,37.2l15.72-20h-9.37l-11.05,14.6l-11.05-14.6h-9.37l15.75,20l-14.82,18.82h-3.88v-5.26h-20.5V40.28
		h19.16v-6.63h-19.07V23.58h20.02V17.2h-27.38v38.82h-7.99V17.2h-7.13v29.14L132.49,17.2h-7.41v38.82h-7.99V17.2h-7.13v29.14
		L88.84,17.2h-7.41v38.82h-5L59.59,17.2h-7.97L35.15,56.02H0.24v67.71h491.72l31.26,13.6l31.12-13.6h41.21V56.02H300.99z
		 M219.86,42.6l10.16,13.42H209.7L219.86,42.6z M132.2,27.44l20.28,28.58H132.2V27.44z M88.56,27.44l20.28,28.58H88.56V27.44z
		 M55.43,24.84l6.29,15.02h-8.05l-2.54,6.43h13.28l4.07,9.73H42.73L55.43,24.84z"/>
</g>
<g id="Calque_3">
</g>
</svg>
