<?xml version="1.0" encoding="utf-8"?>
<!-- Generator: Adobe Illustrator 28.0.0, SVG Export Plug-In . SVG Version: 6.00 Build 0)  -->
<svg version="1.1" id="Calque_1" xmlns="http://www.w3.org/2000/svg" xmlns:xlink="http://www.w3.org/1999/xlink" x="0px" y="0px"
	 viewBox="0 0 75.83 68.26" style="enable-background:new 0 0 75.83 68.26;" xml:space="preserve">
<style type="text/css">
	.st0{fill:#FBBA00;}
	.st1{fill:url(#SVGID_1_);}
	.st2{fill:#FFFFFF;}
	.st3{fill:#153E8C;}
	.st4{fill:#E84E0F;}
</style>
<g>
	<polygon class="st0" points="38.21,3.71 39.23,5.87 41.57,6.26 39.83,7.89 40.19,10.24 38.1,9.09 35.97,10.15 36.42,7.82 
		34.75,6.12 37.12,5.82 	"/>
	<polygon class="st0" points="38.21,55.46 39.23,57.61 41.57,58 39.83,59.63 40.19,61.99 38.1,60.83 35.97,61.9 36.42,59.56 
		34.75,57.86 37.12,57.57 	"/>
	<polygon class="st0" points="23.91,7.1 24.93,9.26 27.27,9.65 25.53,11.27 25.89,13.63 23.8,12.48 21.67,13.54 22.12,11.2 
		20.45,9.51 22.82,9.21 	"/>
	<polygon class="st0" points="52.56,7.1 53.56,9.26 55.91,9.65 54.17,11.27 54.53,13.63 52.44,12.48 50.31,13.54 50.76,11.2 
		49.09,9.51 51.46,9.21 	"/>
	<polygon class="st0" points="15.07,16.66 16.09,18.82 18.44,19.22 16.69,20.84 17.05,23.2 14.97,22.05 12.84,23.11 13.29,20.77 
		11.62,19.07 13.98,18.78 	"/>
	<polygon class="st0" points="61.06,16.66 62.07,18.82 64.43,19.22 62.69,20.84 63.03,23.2 60.95,22.05 58.82,23.11 59.27,20.77 
		57.6,19.07 59.96,18.78 	"/>
	<polygon class="st0" points="12,29.34 13.01,31.5 15.37,31.89 13.62,33.51 13.98,35.87 11.9,34.72 9.76,35.78 10.21,33.44 
		8.54,31.75 10.9,31.45 	"/>
	<polygon class="st0" points="63.87,29.34 64.88,31.5 67.23,31.89 65.49,33.51 65.84,35.87 63.76,34.72 61.63,35.78 62.08,33.44 
		60.41,31.75 62.77,31.45 	"/>
	<polygon class="st0" points="14.73,42.13 15.74,44.28 18.09,44.67 16.35,46.3 16.71,48.66 14.62,47.5 12.49,48.57 12.94,46.23 
		11.27,44.53 13.63,44.24 	"/>
	<polygon class="st0" points="60.84,42.13 61.85,44.28 64.2,44.67 62.46,46.3 62.81,48.66 60.73,47.5 58.6,48.57 59.05,46.23 
		57.38,44.53 59.74,44.24 	"/>
	<polygon class="st0" points="51.46,51.52 52.47,53.68 54.82,54.07 53.08,55.7 53.43,58.05 51.35,56.9 49.22,57.97 49.67,55.63 
		48,53.93 50.36,53.63 	"/>
	<polygon class="st0" points="23.93,51.52 24.93,53.68 27.29,54.07 25.55,55.7 25.9,58.05 23.81,56.9 21.68,57.97 22.14,55.63 
		20.46,53.93 22.83,53.63 	"/>
</g>
<g>
	
		<linearGradient id="SVGID_1_" gradientUnits="userSpaceOnUse" x1="23.927" y1="34.5411" x2="40.6019" y2="33.6089" gradientTransform="matrix(1 0 0 -1 0 66.6399)">
		<stop  offset="0" style="stop-color:#E84E0F"/>
		<stop  offset="0.3413" style="stop-color:#E74E11"/>
		<stop  offset="0.4643" style="stop-color:#E34E19"/>
		<stop  offset="0.5519" style="stop-color:#DB4E24"/>
		<stop  offset="0.6228" style="stop-color:#D14D30"/>
		<stop  offset="0.6835" style="stop-color:#C24D3E"/>
		<stop  offset="0.7373" style="stop-color:#AF4C4D"/>
		<stop  offset="0.7859" style="stop-color:#984A5D"/>
		<stop  offset="0.8306" style="stop-color:#7A486D"/>
		<stop  offset="0.8722" style="stop-color:#55447D"/>
		<stop  offset="0.9091" style="stop-color:#263F8A"/>
		<stop  offset="0.9159" style="stop-color:#153E8C"/>
	</linearGradient>
	<path class="st1" d="M38.48,16.61l16.32,8.15v16.32l-16.32,8.13l-16.32-8.13V24.77L38.48,16.61z M23.02,24.92l15.47,7.71
		l15.43-7.71l-15.43-7.75L23.02,24.92z M28.28,31.31l-2.39-1.16v2.35L28.28,31.31z M28.25,37.74l-2.35-1.18v2.35L28.25,37.74z
		 M30.74,35.02l2.57-1.25l-4.44-2.17l-2.62,1.32L30.74,35.02z M38.48,45.45l12.23-6.12l-9.02-4.51l-3.18,1.5l-1.22-0.61l-6.54,3.25
		l-1.91-0.94l-2.58,1.3L38.48,45.45z M36.76,35.45L34,34.11l-2.8,1.4l0.02,2.67L36.76,35.45z M54.27,40.77V25.34l-15.38,7.65v2.54
		l12.67-6.24v10.2L38.71,45.9v2.62L54.27,40.77z M42.28,34.53l8.76,4.38v-8.76L42.28,34.53z"/>
</g>
<polygon class="st2" points="38.04,33.08 38.04,35.52 25.47,29.37 25.47,33.13 30.34,35.48 30.34,38.18 25.47,35.79 25.47,39.51 
	38.04,45.88 38.04,48.35 22.61,40.66 22.61,25.38 "/>
<polygon class="st3" points="38.43,32.61 54.8,24.77 54.8,41.09 38.43,49.25 38.44,45.43 51.02,39.18 51.04,30.16 38.43,36.37 "/>
<polygon class="st4" points="38.43,32.61 38.43,36.37 25.91,30.15 25.91,32.77 30.74,35.02 30.75,38.97 25.91,36.57 25.91,39.16 
	38.44,45.43 38.43,49.25 22.16,41.09 22.17,24.77 "/>
</svg>
