<?xml version="1.0" encoding="utf-8"?>
<!-- Generator: Adobe Illustrator 28.0.0, SVG Export Plug-In . SVG Version: 6.00 Build 0)  -->
<svg version="1.1" id="Calque_1" xmlns="http://www.w3.org/2000/svg" xmlns:xlink="http://www.w3.org/1999/xlink" x="0px" y="0px"
	 viewBox="0 0 343.92 82.42" style="enable-background:new 0 0 343.92 82.42;" xml:space="preserve">
<style type="text/css">
	.st0{fill:#FBBA00;}
	.st1{fill:#E84E0F;}
	.st2{fill:#153E8C;}
	.st3{fill:url(#SVGID_1_);}
	.st4{fill:#FFFFFF;}
</style>
<g>
	<polygon class="st0" points="51.04,13.44 52.06,15.6 54.4,16 52.66,17.62 53.02,19.97 50.93,18.83 48.8,19.89 49.25,17.55 
		47.58,15.85 49.95,15.55 	"/>
	<polygon class="st0" points="51.04,65.19 52.06,67.34 54.4,67.73 52.66,69.37 53.02,71.72 50.93,70.56 48.8,71.63 49.25,69.3 
		47.58,67.59 49.95,67.3 	"/>
	<polygon class="st0" points="36.74,16.83 37.76,18.99 40.1,19.38 38.36,21.01 38.72,23.36 36.63,22.21 34.5,23.27 34.95,20.94 
		33.28,19.24 35.65,18.95 	"/>
	<polygon class="st0" points="65.39,16.83 66.39,18.99 68.74,19.38 67,21.01 67.36,23.36 65.27,22.21 63.14,23.27 63.59,20.94 
		61.92,19.24 64.29,18.95 	"/>
	<polygon class="st0" points="27.9,26.4 28.92,28.56 31.27,28.95 29.52,30.57 29.88,32.93 27.8,31.78 25.67,32.84 26.11,30.5 
		24.45,28.81 26.81,28.51 	"/>
	<polygon class="st0" points="73.89,26.4 74.9,28.56 77.25,28.95 75.52,30.57 75.86,32.93 73.78,31.78 71.65,32.84 72.1,30.5 
		70.43,28.81 72.79,28.51 	"/>
	<polygon class="st0" points="24.83,39.07 25.84,41.23 28.2,41.62 26.45,43.25 26.81,45.61 24.72,44.45 22.59,45.51 23.04,43.18 
		21.37,41.48 23.73,41.19 	"/>
	<polygon class="st0" points="76.7,39.07 77.71,41.23 80.06,41.62 78.32,43.25 78.67,45.61 76.59,44.45 74.46,45.51 74.91,43.18 
		73.24,41.48 75.6,41.19 	"/>
	<polygon class="st0" points="27.56,51.86 28.57,54.01 30.92,54.4 29.18,56.03 29.54,58.39 27.45,57.23 25.32,58.3 25.77,55.96 
		24.1,54.26 26.46,53.97 	"/>
	<polygon class="st0" points="73.67,51.86 74.68,54.01 77.03,54.4 75.29,56.03 75.64,58.39 73.56,57.23 71.43,58.3 71.88,55.96 
		70.21,54.26 72.57,53.97 	"/>
	<polygon class="st0" points="64.29,61.25 65.3,63.41 67.65,63.8 65.91,65.43 66.26,67.78 64.18,66.64 62.05,67.7 62.5,65.36 
		60.83,63.66 63.19,63.36 	"/>
	<polygon class="st0" points="36.76,61.25 37.76,63.41 40.12,63.8 38.38,65.43 38.73,67.78 36.64,66.64 34.51,67.7 34.97,65.36 
		33.29,63.66 35.66,63.36 	"/>
</g>
<g>
	<g>
		<rect x="88.26" y="42.62" class="st1" width="11.83" height="2.43"/>
		<polygon class="st1" points="90.99,46.3 88.26,46.3 88.26,52.65 100.27,52.65 100.27,50.22 90.99,50.22 		"/>
		<polygon class="st1" points="88.26,35.4 88.26,41.39 90.99,41.39 90.99,37.83 100.27,37.83 100.27,35.4 		"/>
	</g>
	<g>
		<rect x="102.13" y="35.37" class="st2" width="2.77" height="8.01"/>
		<path class="st2" d="M114.21,45.82c0,2.98-1.7,4.69-4.66,4.69c-2.94,0-4.63-1.71-4.63-4.69v-1.2h-2.77v1.25
			c0,4.49,2.7,7.06,7.41,7.06c4.73,0,7.43-2.57,7.43-7.06v-1.23h-2.77v1.17H114.21z"/>
		<rect x="114.21" y="35.37" class="st2" width="2.77" height="8.01"/>
	</g>
	<path class="st2" d="M127.59,45.78c2.23-0.38,4.34-2.04,4.34-5.09c0-3.17-2.32-5.28-5.78-5.28h-7.3v6.99h2.74v-4.56h4.3
		c1.92,0,3.22,1.17,3.22,2.91c0,1.73-1.33,2.94-3.22,2.94h-7.04v9.02h2.74v-6.62h3.07l4.43,6.62h3.26L127.59,45.78z"/>
	<path class="st2" d="M142.92,35.11c-5.19,0-8.95,3.74-8.95,8.9c0,5.15,3.76,8.9,8.95,8.9c5.2,0,8.97-3.74,8.97-8.9
		S148.11,35.11,142.92,35.11z M142.92,50.51c-3.66,0-6.13-2.61-6.13-6.49s2.47-6.49,6.13-6.49c3.63,0,6.16,2.67,6.16,6.49
		C149.07,47.84,146.54,50.51,142.92,50.51z"/>
	<path class="st2" d="M167.76,48.02l-0.14,0.2c-1,1.39-2.79,2.29-4.58,2.29c-3.74,0-6.44-2.73-6.44-6.49c0-3.76,2.71-6.49,6.44-6.49
		c1.8,0,3.61,0.9,4.58,2.29l0.14,0.21l2.32-1.24l-0.19-0.26c-1.63-2.23-3.99-3.41-6.86-3.41c-5.37,0-9.27,3.76-9.27,8.92
		s3.9,8.92,9.27,8.92c2.84,0,5.15-1.15,6.88-3.44l0.21-0.27L167.76,48.02z"/>
	<g>
		<path class="st2" d="M180.79,35.11c-5.19,0-8.95,3.74-8.95,8.9c0,5.15,3.76,8.9,8.95,8.9c5.2,0,8.97-3.74,8.97-8.9
			S185.99,35.11,180.79,35.11z M180.79,50.51c-3.66,0-6.13-2.61-6.13-6.49s2.47-6.49,6.13-6.49c3.63,0,6.16,2.67,6.16,6.49
			C186.94,47.84,184.41,50.51,180.79,50.51z"/>
		<path class="st2" d="M198.18,35.46V35.4h-6.54v13.58h2.74V37.83h3.51c3.84,0,6.42,2.49,6.42,6.21s-2.58,6.21-6.42,6.21h-6.25v2.43
			h6.25c5.44,0,9.24-3.54,9.24-8.61C207.13,39.08,203.47,35.58,198.18,35.46z"/>
		<polygon class="st2" points="209.03,41.39 211.78,41.39 211.78,37.83 221.04,37.83 221.04,35.4 209.03,35.4 		"/>
		<polygon class="st2" points="211.78,46.3 209.03,46.3 209.03,52.65 221.04,52.65 221.04,50.22 211.78,50.22 		"/>
		<rect x="209.03" y="42.62" class="st2" width="11.83" height="2.43"/>
		<path class="st2" d="M230.27,42.37c-2.14-0.56-3.98-1.03-3.98-2.45c0-1.39,1.36-2.36,3.3-2.36c1.39,0,3.36,0.33,4.85,1.9
			l0.21,0.23l1.69-1.96l-0.19-0.19c-1.58-1.58-3.79-2.42-6.38-2.42c-3.66,0-6.31,2.08-6.31,4.95c0,3.44,3.19,4.25,6.01,4.97
			c2.32,0.59,4.33,1.1,4.33,2.86c0,1.27-1.01,2.62-3.83,2.62c-2.87,0-4.63-1.62-5.26-2.32l-0.22-0.25l-1.68,2.05l0.17,0.19
			c1.65,1.76,4.1,2.74,6.91,2.74c4.96,0,6.73-2.68,6.73-5.18C236.63,44.03,233.1,43.11,230.27,42.37z"/>
	</g>
	<g>
		<rect x="239.12" y="35.61" class="st1" width="13.81" height="2.43"/>
		<rect x="244.65" y="39.28" class="st1" width="2.74" height="13.58"/>
		<path class="st1" d="M261.96,35.32c-5.19,0-8.95,3.74-8.95,8.9s3.76,8.9,8.95,8.9c5.2,0,8.97-3.74,8.97-8.9
			S267.16,35.32,261.96,35.32z M261.96,50.72c-3.66,0-6.13-2.61-6.13-6.49s2.47-6.49,6.13-6.49c3.63,0,6.16,2.67,6.16,6.49
			C268.11,48.05,265.58,50.72,261.96,50.72z"/>
		<path class="st1" d="M281.76,35.32c-5.19,0-8.95,3.74-8.95,8.9s3.76,8.9,8.95,8.9c5.2,0,8.97-3.74,8.97-8.9
			S286.96,35.32,281.76,35.32z M281.76,50.72c-3.66,0-6.13-2.61-6.13-6.49s2.47-6.49,6.13-6.49c3.62,0,6.16,2.67,6.16,6.49
			S285.39,50.72,281.76,50.72z"/>
		<rect x="292.61" y="35.61" class="st1" width="2.74" height="13.58"/>
		<rect x="292.61" y="50.43" class="st1" width="10.86" height="2.43"/>
		<path class="st1" d="M311.38,42.59c-2.14-0.56-3.98-1.03-3.98-2.45c0-1.39,1.35-2.36,3.3-2.36c1.39,0,3.36,0.33,4.85,1.9
			l0.21,0.23l1.69-1.96l-0.19-0.19c-1.58-1.58-3.79-2.42-6.38-2.42c-3.66,0-6.31,2.08-6.31,4.95c0,3.44,3.19,4.25,6.01,4.97
			c2.32,0.59,4.33,1.1,4.33,2.86c0,1.27-1.01,2.62-3.83,2.62c-2.87,0-4.63-1.62-5.26-2.32l-0.22-0.25l-1.68,2.05l0.17,0.19
			c1.65,1.76,4.1,2.74,6.91,2.74c4.96,0,6.73-2.68,6.73-5.18C317.75,44.24,314.22,43.32,311.38,42.59z"/>
	</g>
</g>
<g>
	
		<linearGradient id="SVGID_1_" gradientUnits="userSpaceOnUse" x1="36.7564" y1="44.2738" x2="53.4314" y2="43.3416" gradientTransform="matrix(1 0 0 -1 0 86.1053)">
		<stop  offset="0" style="stop-color:#E84E0F"/>
		<stop  offset="0.3413" style="stop-color:#E74E11"/>
		<stop  offset="0.4643" style="stop-color:#E34E19"/>
		<stop  offset="0.5519" style="stop-color:#DB4E24"/>
		<stop  offset="0.6228" style="stop-color:#D14D30"/>
		<stop  offset="0.6835" style="stop-color:#C24D3E"/>
		<stop  offset="0.7373" style="stop-color:#AF4C4D"/>
		<stop  offset="0.7859" style="stop-color:#984A5D"/>
		<stop  offset="0.8306" style="stop-color:#7A486D"/>
		<stop  offset="0.8722" style="stop-color:#55447D"/>
		<stop  offset="0.9091" style="stop-color:#263F8A"/>
		<stop  offset="0.9159" style="stop-color:#153E8C"/>
	</linearGradient>
	<path class="st3" d="M51.31,26.35l16.32,8.15v16.32l-16.32,8.13L35,50.82V34.5L51.31,26.35z M35.85,34.65l15.47,7.71l15.43-7.71
		L51.31,26.9L35.85,34.65z M41.11,41.04l-2.39-1.16v2.35L41.11,41.04z M41.08,47.47l-2.35-1.18v2.35L41.08,47.47z M43.57,44.75
		l2.57-1.25l-4.44-2.17l-2.62,1.32L43.57,44.75z M51.31,55.18l12.23-6.12l-9.02-4.51l-3.18,1.5l-1.22-0.61l-6.54,3.25l-1.91-0.94
		l-2.58,1.3L51.31,55.18z M49.59,45.18l-2.76-1.34l-2.8,1.4l0.02,2.67L49.59,45.18z M67.1,50.5V35.07l-15.38,7.65v2.54l12.67-6.24
		v10.2l-12.85,6.41v2.62L67.1,50.5z M55.11,44.26l8.76,4.38v-8.76L55.11,44.26z"/>
</g>
<polygon class="st4" points="50.86,42.81 50.86,45.25 38.3,39.11 38.3,42.86 43.17,45.22 43.17,47.92 38.3,45.52 38.3,49.24 
	50.86,55.61 50.86,58.08 35.44,50.4 35.44,35.11 "/>
<polygon class="st2" points="51.26,42.34 67.63,34.5 67.63,50.82 51.26,58.98 51.27,55.16 63.85,48.91 63.87,39.9 51.26,46.1 "/>
<polygon class="st1" points="51.26,42.34 51.26,46.1 38.74,39.88 38.74,42.51 43.57,44.75 43.58,48.7 38.74,46.3 38.74,48.89 
	51.27,55.16 51.26,58.98 34.99,50.82 35,34.5 "/>
</svg>
