<?xml version="1.0" encoding="utf-8"?>
<!-- Generator: Adobe Illustrator 28.0.0, SVG Export Plug-In . SVG Version: 6.00 Build 0)  -->
<svg version="1.1" id="OBJECT" xmlns="http://www.w3.org/2000/svg" xmlns:xlink="http://www.w3.org/1999/xlink" x="0px" y="0px"
	 width="283.5px" height="283.5px" viewBox="0 0 283.5 283.5" style="enable-background:new 0 0 283.5 283.5;" xml:space="preserve"
	>
<style type="text/css">
	.st0{fill:#E84E0F;}
</style>
<path class="st0" d="M245.3,49H35.5c-3.7,0-6.7,3-6.7,6.7v118c0,2.3,1.8,4.1,4.1,4.1h215c2.3,0,4.1-1.8,4.1-4.1v-118
	C252,52.1,249,49,245.3,49L245.3,49z M243.8,169.7H37V57.3h206.8V169.7L243.8,169.7z M244.8,33.2H36c-12.7,0-23.1,10.4-23.1,23.1
	v130.5c0,12.7,10.4,23.1,23.1,23.1h61.5v21.9H72.7c-11.2,0-20.3,7.6-20.3,17v12.9c0,2.3,1.8,4.1,4.1,4.1h167.7
	c2.3,0,4.1-1.8,4.1-4.1v-12.9c0-9.4-9.1-17-20.3-17h-24.8v-21.9h61.5c12.7,0,23.1-10.4,23.1-23.1V56.3
	C267.9,43.5,257.5,33.2,244.8,33.2z M220.1,248.8v8.8H60.7v-8.8c0-4.8,5.5-8.8,12.1-8.8H208C214.6,240,220.1,244,220.1,248.8
	L220.1,248.8z M175,231.8h-69.3v-21.9H175V231.8z M259.6,186.8c0,8.2-6.7,14.8-14.9,14.8H36c-8.2,0-14.9-6.7-14.9-14.8V56.3
	c0-8.2,6.7-14.9,14.9-14.9h208.8c8.2,0,14.9,6.7,14.9,14.9L259.6,186.8L259.6,186.8z M174.7,141.2c-8.1,10.6-20.6,16.5-33.4,16.5
	c-0.2,0-0.4,0-0.6,0c1.1,1.6,1,3.9-0.5,5.3c-0.8,0.8-1.8,1.2-2.9,1.2c-1.1,0-2.1-0.4-2.9-1.2l-8.2-8.4c-0.9-0.9-1.3-2.2-1.1-3.5
	s1-2.4,2.1-3l8.9-4.8c2-1.1,4.5-0.3,5.6,1.7c0.8,1.5,0.6,3.3-0.4,4.6c10.3,0,20.4-4.7,26.9-13.2c1.4-1.8,4-2.1,5.8-0.8
	C175.8,136.8,176.1,139.4,174.7,141.2L174.7,141.2z M88.7,149.9c12.1,0,21.9-9.8,21.9-21.9s-9.8-22-21.9-22s-21.9,9.8-21.9,21.9
	C66.8,140,76.6,149.9,88.7,149.9z M88.7,114.3c7.6,0,13.7,6.1,13.7,13.7c0,7.5-6.1,13.7-13.7,13.7S75,135.5,75,127.9
	S81.1,114.3,88.7,114.3z M52.5,136.5l3.8,1.5c0.6,2,1.4,4,2.4,5.8l-1.7,3.7c-0.7,1.6-0.3,3.4,0.8,4.6l6.6,6.6c1.2,1.2,3,1.6,4.6,0.9
	l3.7-1.7c1.9,1,3.8,1.8,5.8,2.4l1.5,3.8c0.6,1.6,2.1,2.6,3.8,2.6h9.4c1.7,0,3.2-1.1,3.8-2.6l1.5-3.8c2-0.6,3.9-1.4,5.8-2.4l3.7,1.7
	c1.6,0.7,3.4,0.4,4.6-0.9l6.6-6.6c1.2-1.2,1.5-3,0.8-4.6l-1.7-3.7c1-1.9,1.8-3.8,2.4-5.8l3.8-1.5c1.6-0.6,2.6-2.1,2.6-3.8v-9.4
	c0-1.7-1.1-3.2-2.6-3.8l-3.8-1.5c-0.6-2-1.4-3.9-2.4-5.8l1.7-3.7c0.7-1.6,0.3-3.4-0.8-4.6l-6.6-6.6c-1.2-1.2-3-1.5-4.6-0.8l-3.7,1.7
	c-1.9-1-3.8-1.8-5.8-2.4L97,92c-0.6-1.6-2.1-2.6-3.8-2.6H84c-1.7,0-3.2,1.1-3.8,2.6l-1.5,3.8c-2,0.6-3.9,1.4-5.8,2.4l-3.7-1.7
	c-1.6-0.7-3.4-0.3-4.6,0.8l-6.6,6.6c-1.2,1.2-1.5,3-0.8,4.6l1.7,3.7c-1,1.9-1.8,3.8-2.4,5.8l-3.8,1.5c-1.6,0.6-2.6,2.1-2.6,3.8v9.4
	C49.9,134.4,50.9,135.9,52.5,136.5L52.5,136.5z M58.1,126.1l3.1-1.2c1.3-0.5,2.2-1.6,2.5-2.9c0.6-2.7,1.7-5.2,3.1-7.5
	c0.7-1.2,0.8-2.6,0.3-3.8l-1.3-3.1l2.6-2.7l3.1,1.4c1.2,0.6,2.7,0.5,3.8-0.2c2.3-1.4,4.8-2.5,7.5-3.1c1.3-0.3,2.4-1.3,2.9-2.5
	l1.2-3.1h3.7l1.2,3.1c0.5,1.3,1.6,2.2,2.9,2.5c2.6,0.6,5.1,1.7,7.5,3.1c1.2,0.7,2.6,0.8,3.8,0.2l3.1-1.4l2.7,2.7l-1.4,3.1
	c-0.6,1.2-0.5,2.7,0.2,3.8c1.4,2.3,2.5,4.8,3.1,7.5c0.3,1.3,1.3,2.4,2.5,2.9l3.1,1.2v3.7l-3.1,1.2c-1.3,0.5-2.2,1.6-2.5,2.9
	c-0.6,2.6-1.7,5.1-3.1,7.5c-0.7,1.2-0.8,2.6-0.2,3.8l1.4,3.1l-2.6,2.6l-3-1.4c-1.2-0.6-2.7-0.5-3.8,0.2c-2.4,1.4-4.9,2.5-7.5,3.1
	c-1.3,0.3-2.4,1.3-2.9,2.5l-1.2,3.1h-3.7l-1.2-3.1c-0.5-1.3-1.6-2.2-2.9-2.5c-2.6-0.6-5.1-1.7-7.5-3.1c-1.2-0.7-2.6-0.8-3.8-0.2
	l-3.1,1.4l-2.6-2.6l1.3-3.1c0.6-1.2,0.4-2.7-0.3-3.8c-1.4-2.3-2.5-4.8-3.1-7.5c-0.3-1.3-1.3-2.4-2.5-2.9l-3.1-1.2L58.1,126.1
	L58.1,126.1z M192.1,120.9c12.1,0,21.9-9.8,21.9-21.9s-9.8-21.9-21.9-21.9c-12.1,0-21.9,9.8-21.9,21.9
	C170.1,111.1,180,120.9,192.1,120.9z M192.1,85.3c7.6,0,13.7,6.1,13.7,13.7s-6.1,13.7-13.7,13.7c-7.6,0-13.7-6.2-13.7-13.7
	C178.4,91.4,184.5,85.3,192.1,85.3z M155.9,90.4c-1.6,0.6-2.6,2.1-2.6,3.8v9.4c0,1.7,1.1,3.2,2.6,3.8l3.8,1.5c0.6,2,1.4,4,2.4,5.8
	l-1.7,3.7c-0.7,1.6-0.4,3.4,0.9,4.6l6.6,6.6c1.2,1.2,3,1.5,4.6,0.9l3.7-1.7c1.9,1,3.8,1.8,5.8,2.4l1.5,3.8c0.6,1.6,2.1,2.6,3.8,2.6
	h9.4c1.7,0,3.2-1.1,3.8-2.6l1.5-3.8c2-0.6,4-1.4,5.8-2.4l3.7,1.7c1.6,0.7,3.4,0.4,4.6-0.9l6.6-6.6c1.2-1.2,1.5-3,0.9-4.6l-1.6-3.7
	c1-1.9,1.8-3.8,2.4-5.8l3.8-1.5c1.6-0.6,2.6-2.1,2.6-3.8v-9.4c0-1.7-1.1-3.2-2.6-3.8l-3.8-1.5c-0.6-2-1.4-3.9-2.4-5.8l1.6-3.7
	c0.7-1.6,0.4-3.4-0.9-4.6l-6.6-6.6c-1.2-1.2-3-1.5-4.6-0.8l-3.7,1.7c-1.9-1-3.8-1.8-5.8-2.4l-1.5-3.8c-0.6-1.6-2.1-2.6-3.8-2.6h-9.4
	c-1.7,0-3.2,1-3.8,2.6l-1.5,3.8c-2,0.6-3.9,1.4-5.8,2.4l-3.7-1.7c-1.6-0.7-3.4-0.3-4.6,0.8l-6.6,6.6c-1.2,1.2-1.5,3-0.9,4.6l1.7,3.7
	c-1,1.9-1.8,3.8-2.4,5.8L155.9,90.4z M161.5,97.1l3.1-1.2c1.3-0.5,2.2-1.6,2.5-2.9c0.6-2.6,1.7-5.1,3.1-7.5c0.7-1.2,0.8-2.6,0.2-3.8
	l-1.4-3l2.6-2.7l3.1,1.3c1.2,0.6,2.7,0.4,3.8-0.3c2.3-1.4,4.8-2.5,7.5-3.1c1.3-0.3,2.4-1.3,2.9-2.5l1.2-3.1h3.7l1.2,3.1
	c0.5,1.3,1.6,2.2,2.9,2.5c2.6,0.6,5.2,1.7,7.5,3.1c1.1,0.7,2.6,0.8,3.8,0.3l3.1-1.3l2.6,2.6l-1.4,3.1c-0.6,1.2-0.4,2.7,0.3,3.8
	c1.4,2.3,2.5,4.8,3.1,7.5c0.3,1.3,1.3,2.4,2.5,2.9l3.1,1.2v3.8l-3.1,1.2c-1.3,0.5-2.2,1.6-2.5,2.9c-0.6,2.7-1.7,5.2-3.1,7.5
	c-0.7,1.2-0.8,2.6-0.3,3.8l1.4,3.1l-2.6,2.6l-3.1-1.4c-1.2-0.6-2.7-0.4-3.8,0.3c-2.3,1.4-4.8,2.5-7.5,3.1c-1.3,0.3-2.4,1.3-2.9,2.5
	l-1.2,3.1h-3.7l-1.2-3.1c-0.5-1.3-1.6-2.2-2.9-2.5c-2.6-0.6-5.1-1.7-7.4-3.1c-1.2-0.7-2.6-0.8-3.8-0.3l-3.1,1.4l-2.6-2.6l1.4-3
	c0.6-1.2,0.5-2.7-0.3-3.8c-1.4-2.3-2.5-4.8-3.1-7.5c-0.3-1.3-1.3-2.4-2.5-2.9l-3.1-1.2V97.1L161.5,97.1z M107.8,85.5
	c8.2-10.7,20.9-16.6,34-16.5c-1.1-1.6-1-3.9,0.5-5.3c1.6-1.6,4.2-1.5,5.8,0.1l8.2,8.4c0.9,0.9,1.3,2.2,1.1,3.5s-1,2.4-2.1,3
	l-8.9,4.8c-0.6,0.3-1.3,0.5-1.9,0.5c-1.5,0-2.9-0.8-3.6-2.2c-0.8-1.5-0.6-3.3,0.4-4.5c-10.3,0-20.4,4.7-26.9,13.2
	c-0.8,1.1-2,1.6-3.3,1.6c-0.9,0-1.8-0.3-2.5-0.8C106.7,89.9,106.4,87.3,107.8,85.5z"/>
</svg>
