<?xml version="1.0" encoding="utf-8"?>
<!-- Generator: Adobe Illustrator 28.0.0, SVG Export Plug-In . SVG Version: 6.00 Build 0)  -->
<svg version="1.1" id="OBJECT" xmlns="http://www.w3.org/2000/svg" xmlns:xlink="http://www.w3.org/1999/xlink" x="0px" y="0px"
	 width="283.46px" height="283.46px" viewBox="0 0 283.46 283.46" style="enable-background:new 0 0 283.46 283.46;"
	 xml:space="preserve">
<style type="text/css">
	.st0{fill:#153E8B;}
</style>
<path class="st0" d="M245.26,49.04H35.48c-3.72,0-6.74,3.02-6.74,6.74v118.01c0,2.27,1.84,4.12,4.12,4.12h215.03
	c2.27,0,4.12-1.84,4.12-4.12V55.78C252,52.06,248.98,49.04,245.26,49.04L245.26,49.04z M243.77,169.67H36.97V57.27h206.79
	L243.77,169.67L243.77,169.67z M244.78,33.17H35.96c-12.73,0-23.09,10.36-23.09,23.09v130.51c0,12.72,10.36,23.08,23.09,23.08h61.52
	v21.92H72.73c-11.2,0-20.31,7.65-20.31,17.04v12.93c0,2.27,1.84,4.12,4.12,4.12H224.2c2.27,0,4.12-1.84,4.12-4.12V248.8
	c0-9.4-9.11-17.04-20.31-17.04h-24.75v-21.92h61.52c12.73,0,23.09-10.35,23.09-23.08V56.26C267.87,43.53,257.51,33.17,244.78,33.17z
	 M220.09,248.8v8.81H60.65v-8.81c0-4.78,5.53-8.81,12.07-8.81h135.29C214.56,239.99,220.09,244.03,220.09,248.8L220.09,248.8z
	 M175.03,231.76h-69.32v-21.92h69.32V231.76z M259.64,186.77c0,8.18-6.66,14.84-14.86,14.84H35.96c-8.19,0-14.86-6.66-14.86-14.84
	V56.26c0-8.19,6.66-14.86,14.86-14.86h208.82c8.19,0,14.86,6.66,14.86,14.86V186.77z M174.72,141.21
	c-8.09,10.56-20.56,16.46-33.41,16.46c-0.19,0-0.37-0.01-0.56-0.01c1.14,1.62,0.97,3.88-0.49,5.31c-0.8,0.78-1.84,1.17-2.87,1.17
	c-1.07,0-2.14-0.42-2.95-1.24l-8.19-8.41c-0.9-0.93-1.32-2.22-1.12-3.5c0.2-1.28,0.98-2.39,2.12-3l8.92-4.78
	c2-1.07,4.5-0.32,5.57,1.68c0.81,1.51,0.58,3.3-0.44,4.55c10.34,0.01,20.37-4.74,26.88-13.24c1.38-1.81,3.97-2.15,5.77-0.77
	C175.76,136.82,176.1,139.41,174.72,141.21L174.72,141.21z M88.68,149.88c12.09,0,21.92-9.83,21.92-21.92s-9.83-21.92-21.92-21.92
	s-21.92,9.83-21.92,21.92C66.76,140.04,76.59,149.88,88.68,149.88z M88.68,114.26c7.55,0,13.69,6.14,13.69,13.69
	s-6.14,13.69-13.69,13.69s-13.69-6.14-13.69-13.69S81.13,114.26,88.68,114.26z M52.5,136.49l3.81,1.47
	c0.63,2.01,1.43,3.96,2.41,5.81l-1.65,3.74c-0.69,1.55-0.35,3.37,0.85,4.57l6.63,6.64c1.2,1.21,3.03,1.55,4.59,0.85l3.74-1.66
	c1.87,0.99,3.81,1.79,5.81,2.41l1.47,3.8c0.61,1.59,2.14,2.63,3.84,2.63h9.38c1.7,0,3.23-1.05,3.84-2.63l1.47-3.8
	c1.99-0.62,3.94-1.42,5.82-2.41l3.73,1.66c1.56,0.69,3.38,0.36,4.59-0.85l6.64-6.64c1.2-1.2,1.54-3.03,0.85-4.58l-1.66-3.74
	c0.99-1.87,1.79-3.81,2.41-5.81l3.8-1.47c1.59-0.61,2.63-2.14,2.63-3.84v-9.38c0-1.7-1.05-3.23-2.63-3.84l-3.8-1.47
	c-0.62-2-1.43-3.94-2.41-5.81l1.66-3.74c0.69-1.56,0.35-3.38-0.85-4.58l-6.64-6.64c-1.2-1.2-3.03-1.54-4.58-0.85l-3.74,1.66
	c-1.87-0.99-3.81-1.8-5.81-2.41l-1.47-3.8c-0.61-1.59-2.14-2.63-3.84-2.63h-9.38c-1.7,0-3.23,1.05-3.84,2.63l-1.47,3.8
	c-2,0.62-3.94,1.43-5.81,2.41l-3.74-1.66c-1.56-0.69-3.38-0.35-4.59,0.85l-6.63,6.64c-1.2,1.2-1.54,3.02-0.85,4.57l1.65,3.74
	c-0.98,1.86-1.78,3.8-2.4,5.81l-3.81,1.47c-1.59,0.61-2.64,2.14-2.64,3.84v9.38C49.87,134.35,50.92,135.87,52.5,136.49L52.5,136.49z
	 M58.1,126.09l3.12-1.2c1.27-0.49,2.21-1.57,2.53-2.89c0.63-2.65,1.67-5.16,3.09-7.47c0.71-1.15,0.8-2.58,0.26-3.82l-1.35-3.06
	l2.64-2.65l3.05,1.36c1.24,0.55,2.67,0.46,3.83-0.25c2.34-1.44,4.85-2.48,7.47-3.1c1.32-0.31,2.4-1.26,2.89-2.52l1.2-3.11h3.74
	l1.2,3.11c0.49,1.27,1.57,2.21,2.89,2.52c2.61,0.62,5.12,1.66,7.47,3.1c1.16,0.71,2.59,0.8,3.83,0.25l3.06-1.36l2.65,2.65
	l-1.36,3.06c-0.55,1.24-0.46,2.67,0.25,3.83c1.44,2.34,2.48,4.85,3.1,7.47c0.31,1.32,1.26,2.4,2.52,2.89l3.11,1.2v3.74l-3.11,1.2
	c-1.27,0.49-2.21,1.57-2.52,2.89c-0.62,2.62-1.67,5.13-3.1,7.47c-0.71,1.16-0.8,2.59-0.25,3.83l1.36,3.06l-2.64,2.64l-3.04-1.35
	c-1.24-0.55-2.67-0.46-3.82,0.25c-2.37,1.44-4.88,2.49-7.49,3.11c-1.32,0.31-2.4,1.26-2.89,2.52l-1.2,3.11h-3.74l-1.2-3.11
	c-0.49-1.27-1.57-2.21-2.89-2.52c-2.62-0.62-5.13-1.67-7.47-3.1c-1.16-0.71-2.59-0.81-3.83-0.25l-3.05,1.36l-2.64-2.65l1.35-3.06
	c0.55-1.24,0.45-2.66-0.26-3.82c-1.41-2.3-2.46-4.82-3.11-7.49c-0.32-1.31-1.26-2.38-2.52-2.87l-3.11-1.2L58.1,126.09L58.1,126.09z
	 M192.06,120.91c12.09,0,21.92-9.84,21.92-21.94c0-12.09-9.83-21.92-21.92-21.92c-12.1,0-21.94,9.83-21.94,21.92
	C170.12,111.07,179.96,120.91,192.06,120.91z M192.06,85.28c7.55,0,13.69,6.14,13.69,13.69c0,7.56-6.14,13.71-13.69,13.71
	c-7.56,0-13.71-6.15-13.71-13.71C178.35,91.42,184.5,85.28,192.06,85.28z M155.88,90.44c-1.59,0.61-2.63,2.14-2.63,3.84v9.4
	c0,1.7,1.05,3.23,2.63,3.84l3.8,1.47c0.62,2.01,1.43,3.96,2.41,5.81l-1.66,3.72c-0.69,1.56-0.36,3.38,0.85,4.59l6.64,6.64
	c1.2,1.2,3.03,1.54,4.58,0.85l3.73-1.66c1.86,0.99,3.8,1.79,5.81,2.41l1.47,3.81c0.61,1.59,2.14,2.64,3.84,2.64h9.38
	c1.7,0,3.23-1.05,3.84-2.64l1.47-3.81c2.01-0.62,3.96-1.43,5.81-2.41l3.73,1.66c1.56,0.69,3.38,0.35,4.59-0.85l6.63-6.64
	c1.2-1.2,1.54-3.02,0.85-4.58l-1.65-3.73c0.98-1.86,1.78-3.8,2.4-5.81l3.81-1.47c1.59-0.61,2.64-2.14,2.64-3.84v-9.4
	c0-1.7-1.05-3.23-2.64-3.84l-3.81-1.47c-0.62-2.01-1.42-3.95-2.4-5.81l1.65-3.74c0.69-1.56,0.35-3.37-0.85-4.57l-6.63-6.63
	c-1.2-1.2-3.02-1.54-4.57-0.85l-3.74,1.65c-1.86-0.98-3.8-1.78-5.81-2.4l-1.47-3.81c-0.61-1.59-2.14-2.64-3.84-2.64h-9.38
	c-1.7,0-3.23,1.05-3.84,2.64l-1.47,3.81c-2.01,0.62-3.95,1.42-5.81,2.4l-3.74-1.65c-1.56-0.69-3.37-0.35-4.57,0.85l-6.64,6.64
	c-1.21,1.21-1.54,3.03-0.85,4.59l1.66,3.72c-0.99,1.86-1.79,3.81-2.41,5.8L155.88,90.44z M161.48,97.1l3.11-1.2
	c1.27-0.49,2.21-1.57,2.52-2.89c0.62-2.62,1.67-5.13,3.1-7.47c0.71-1.16,0.81-2.59,0.25-3.83l-1.35-3.04l2.65-2.65l3.06,1.35
	c1.24,0.55,2.67,0.45,3.82-0.26c2.32-1.42,4.83-2.46,7.47-3.09c1.32-0.31,2.4-1.26,2.89-2.53l1.2-3.12h3.73l1.2,3.12
	c0.49,1.27,1.57,2.21,2.89,2.53c2.65,0.63,5.16,1.67,7.47,3.09c1.15,0.71,2.58,0.8,3.82,0.26l3.06-1.35l2.64,2.64l-1.35,3.06
	c-0.55,1.24-0.45,2.66,0.26,3.82c1.42,2.31,2.46,4.82,3.09,7.47c0.31,1.32,1.26,2.4,2.53,2.89l3.12,1.2v3.75l-3.12,1.2
	c-1.27,0.49-2.21,1.57-2.53,2.89c-0.63,2.65-1.67,5.16-3.09,7.47c-0.71,1.15-0.8,2.58-0.26,3.82l1.35,3.05l-2.64,2.64l-3.05-1.36
	c-1.24-0.55-2.68-0.45-3.84,0.26c-2.29,1.42-4.8,2.46-7.46,3.09c-1.32,0.31-2.4,1.26-2.89,2.53l-1.2,3.12h-3.73l-1.2-3.12
	c-0.49-1.27-1.57-2.21-2.89-2.53c-2.64-0.63-5.15-1.67-7.45-3.09c-1.16-0.72-2.6-0.82-3.84-0.26l-3.06,1.36l-2.64-2.64l1.35-3.04
	c0.56-1.25,0.46-2.68-0.26-3.84c-1.42-2.29-2.46-4.8-3.09-7.46c-0.31-1.32-1.26-2.4-2.52-2.89l-3.11-1.2L161.48,97.1L161.48,97.1z
	 M107.77,85.52c8.22-10.72,20.93-16.63,33.97-16.45c-1.15-1.62-0.98-3.88,0.49-5.32c1.63-1.59,4.23-1.55,5.82,0.08l8.19,8.41
	c0.9,0.93,1.32,2.22,1.12,3.5c-0.2,1.28-0.98,2.39-2.12,3l-8.92,4.78c-0.62,0.33-1.28,0.49-1.94,0.49c-1.47,0-2.89-0.79-3.63-2.17
	c-0.81-1.51-0.58-3.29,0.43-4.54c-10.33-0.01-20.36,4.73-26.88,13.23c-0.81,1.06-2.03,1.61-3.27,1.61c-0.87,0-1.75-0.28-2.5-0.85
	C106.73,89.91,106.39,87.33,107.77,85.52z"/>
</svg>
