<?xml version="1.0" encoding="utf-8"?>
<!-- Generator: Adobe Illustrator 28.0.0, SVG Export Plug-In . SVG Version: 6.00 Build 0)  -->
<svg version="1.1" id="OBJECT" xmlns="http://www.w3.org/2000/svg" xmlns:xlink="http://www.w3.org/1999/xlink" x="0px" y="0px"
	 width="283.46px" height="283.46px" viewBox="0 0 283.46 283.46" style="enable-background:new 0 0 283.46 283.46;"
	 xml:space="preserve">
<style type="text/css">
	.st0{fill:#153E8B;}
</style>
<path class="st0" d="M248.41,191.61H223.7v-55.67l34.48-41.38c1.25-1.5,1.04-3.72-0.45-4.97c-0.63-0.53-1.43-0.82-2.26-0.82h-23.54
	c-1.05,0-2.04,0.46-2.71,1.27l-70.61,84.73c-1.25,1.5-1.04,3.72,0.45,4.97c0.63,0.53,1.43,0.82,2.26,0.82h23.54
	c1.05,0,2.04-0.46,2.71-1.27l14.94-17.92v30.26H154.5v-55.67l34.48-41.38c1.25-1.5,1.04-3.72-0.45-4.97
	c-0.63-0.53-1.43-0.82-2.26-0.82h-23.54c-1.05,0-2.04,0.46-2.71,1.27l-70.61,84.73c-1.25,1.5-1.04,3.72,0.45,4.97
	c0.63,0.53,1.43,0.82,2.26,0.82h23.54c1.05,0,2.04-0.46,2.71-1.27l14.94-17.92v30.26H83.9v-55.67l34.48-41.38
	c1.25-1.5,1.04-3.72-0.45-4.97c-0.63-0.53-1.43-0.82-2.26-0.82H92.14c-1.05,0-2.04,0.46-2.71,1.27l-70.61,84.73
	c-1.25,1.5-1.04,3.72,0.45,4.97c0.63,0.53,1.43,0.82,2.26,0.82h23.54c1.05,0,2.04-0.46,2.71-1.27l14.94-17.92v30.26H28.59
	c-5.85,0-10.59,4.74-10.59,10.59c0,5.85,4.74,10.59,10.59,10.59h219.82c5.85,0,10.59-4.74,10.59-10.59
	C259,196.35,254.26,191.61,248.41,191.61L248.41,191.61z M183.22,173.49h-14.35l64.72-77.67h14.35L183.22,173.49z M209.58,152.88
	l7.06-8.47v47.2h-7.06V152.88z M114.02,173.49H99.67l64.72-77.67h14.35L114.02,173.49z M140.38,152.88l7.06-8.47v47.2h-7.06V152.88z
	 M43.42,173.49H29.07l64.72-77.67h14.35L43.42,173.49z M69.78,152.88l7.06-8.47v47.2h-7.06V152.88z M248.41,205.73H28.59
	c-1.95,0-3.53-1.58-3.53-3.53c0-1.95,1.58-3.53,3.53-3.53h219.82c1.95,0,3.53,1.58,3.53,3.53
	C251.94,204.15,250.36,205.73,248.41,205.73L248.41,205.73z"/>
</svg>
