<?xml version="1.0" encoding="utf-8"?>
<!-- Generator: Adobe Illustrator 28.0.0, SVG Export Plug-In . SVG Version: 6.00 Build 0)  -->
<svg version="1.1" id="OBJECT" xmlns="http://www.w3.org/2000/svg" xmlns:xlink="http://www.w3.org/1999/xlink" x="0px" y="0px"
	 width="283.5px" height="283.5px" viewBox="0 0 283.5 283.5" style="enable-background:new 0 0 283.5 283.5;" xml:space="preserve"
	>
<style type="text/css">
	.st0{fill:#FFFFFF;}
</style>
<path class="st0" d="M213.3,235.2l8.8,8.8c1.4,1.4,1.4,3.6,0,5s-3.6,1.4-5,0l-8.9-8.8c-11.8,7.9-27.8-0.6-27.8-14.9
	c0-9.9,8-17.9,17.9-17.9C212.8,207.3,221.2,223.3,213.3,235.2z M198.4,214.4c-9.6,0-14.5,11.7-7.6,18.5c6.8,6.8,18.5,2,18.5-7.6
	C209.2,219.3,204.4,214.4,198.4,214.4L198.4,214.4z M143,195.6c6.8,0,12.7,4.3,14.9,10.6c20-12.2,41.4-20.6,64.1-23.8l-5.8-34.8H171
	c-9.1,14.1-18.5,26.6-25.2,34.6c-1.4,1.7-4.1,1.7-5.4-0.1c-6.7-8.1-16-20.5-25.2-34.6h-37l-7.4,42c20.9,1,40.5,6.1,57.2,17.5
	C129.7,200.4,135.8,195.6,143,195.6z M158.5,214.1c-2.2,12.4-17.6,17.4-26.7,8.4c-1.8-1.8-3.2-4.1-3.9-6.6
	c-7.9-6-16.7-10.6-26.5-13.8c-9.7-3.2-20.4-5-32.1-5.4l-11.4,64.9h177.4l-12.1-72.1C200.1,192.6,178.6,201.4,158.5,214.1
	L158.5,214.1z M149.1,205.2c-5.4-5.4-14.8-1.6-14.8,6.1s9.4,11.6,14.8,6.1C152.5,214.1,152.5,208.6,149.1,205.2z M143,34.5
	c19.4,0,35.2,15.8,35.2,35.2c0,19.4-15.8,35.2-35.2,35.2S107.8,89,107.8,69.6S123.6,34.5,143,34.5L143,34.5z M162.8,49.8
	c-11-11-28.8-11-39.8,0s-11,28.8,0,39.8c11,11,28.8,11,39.8,0C173.8,78.6,173.8,60.7,162.8,49.8z M143,8.9
	c33.6,0,60.7,27.2,60.7,60.7c0,21-15.5,50.3-28.3,71h43.7c1.8,0,3.4,1.4,3.5,3.2L243,264.5c0.4,2.1-1.3,4.1-3.5,4.1H53.6
	c-2.2,0-3.9-2-3.5-4.3l21.4-120.8c0.3-1.7,1.8-2.9,3.5-2.9h35.5c-12.8-20.6-28.3-50-28.3-71C82.3,36.1,109.4,8.9,143,8.9L143,8.9z
	 M180.9,31.7c-20.9-21-54.9-21-75.9,0c-9.7,9.7-15.7,23.1-15.7,37.9c0,29.5,35.1,81.8,53.6,104.9c19.4-24.1,53.6-75.8,53.6-104.8
	C196.6,54.8,190.6,41.4,180.9,31.7z"/>
</svg>
