<?xml version="1.0" encoding="utf-8"?>
<!-- Generator: Adobe Illustrator 28.0.0, SVG Export Plug-In . SVG Version: 6.00 Build 0)  -->
<svg version="1.1" id="OBJECT" xmlns="http://www.w3.org/2000/svg" xmlns:xlink="http://www.w3.org/1999/xlink" x="0px" y="0px"
	 width="283.46px" height="283.46px" viewBox="0 0 283.46 283.46" style="enable-background:new 0 0 283.46 283.46;"
	 xml:space="preserve">
<style type="text/css">
	.st0{fill:#153E8B;}
</style>
<g>
	<g>
		<path class="st0" d="M132.04,188.84c-1.67-0.19-3.36-0.44-5.01-0.75c-2.21-0.42-4.36,1.04-4.78,3.26
			c-0.42,2.22,1.04,4.36,3.26,4.78c1.85,0.35,3.74,0.64,5.62,0.85c0.16,0.02,0.31,0.03,0.46,0.03c2.05,0,3.82-1.54,4.06-3.63
			C135.89,191.11,134.28,189.09,132.04,188.84z"/>
	</g>
</g>
<g>
	<g>
		<path class="st0" d="M157,191.35c-0.42-2.22-2.55-3.68-4.77-3.26c-1.65,0.31-3.34,0.56-5.02,0.75c-2.24,0.25-3.86,2.27-3.61,4.52
			c0.23,2.09,2,3.63,4.06,3.63c0.15,0,0.31-0.01,0.46-0.03c1.88-0.21,3.76-0.49,5.61-0.84C155.95,195.7,157.42,193.56,157,191.35z"
			/>
	</g>
</g>
<g>
	<g>
		<path class="st0" d="M193.32,169.46c-1.6-1.6-4.18-1.6-5.78,0c-1.19,1.19-2.44,2.35-3.72,3.45c-1.71,1.47-1.91,4.05-0.43,5.76
			c0.81,0.94,1.95,1.42,3.1,1.42c0.94,0,1.89-0.33,2.66-0.99c1.43-1.23,2.83-2.53,4.16-3.86
			C194.91,173.64,194.91,171.06,193.32,169.46z"/>
	</g>
</g>
<g>
	<g>
		<path class="st0" d="M95.44,172.83c-1.28-1.1-2.52-2.26-3.71-3.45c-1.6-1.6-4.18-1.6-5.78,0c-1.6,1.6-1.6,4.18,0,5.78
			c1.33,1.33,2.73,2.63,4.16,3.86c0.77,0.66,1.72,0.99,2.66,0.99c1.15,0,2.29-0.48,3.1-1.42C97.34,176.88,97.15,174.3,95.44,172.83z
			"/>
	</g>
</g>
<g>
	<g>
		<path class="st0" d="M205.09,151.52c-1.99-1.06-4.47-0.3-5.53,1.69c-0.79,1.48-1.64,2.96-2.54,4.39c-1.2,1.91-0.63,4.43,1.28,5.64
			c0.68,0.43,1.43,0.63,2.18,0.63c1.36,0,2.68-0.68,3.46-1.91c1.01-1.6,1.96-3.25,2.85-4.91
			C207.84,155.06,207.08,152.58,205.09,151.52z"/>
	</g>
</g>
<g>
	<g>
		<path class="st0" d="M82.26,157.53c-0.89-1.42-1.75-2.9-2.53-4.38c-1.06-1.99-3.53-2.76-5.52-1.7c-2,1.05-2.76,3.53-1.7,5.52
			c0.88,1.67,1.84,3.32,2.84,4.92c0.78,1.23,2.11,1.91,3.46,1.91c0.74,0,1.5-0.2,2.17-0.63C82.89,161.96,83.46,159.44,82.26,157.53z
			"/>
	</g>
</g>
<g>
	<g>
		<path class="st0" d="M211.04,130.91c-2.22-0.42-4.36,1.03-4.78,3.25c-0.31,1.66-0.7,3.32-1.13,4.94c-0.59,2.18,0.7,4.42,2.88,5.01
			c0.36,0.1,0.72,0.14,1.07,0.14c1.8,0,3.45-1.2,3.94-3.02c0.49-1.82,0.92-3.68,1.27-5.54
			C214.71,133.47,213.26,131.33,211.04,130.91z"/>
	</g>
</g>
<g>
	<g>
		<path class="st0" d="M74.2,139.02c-0.43-1.62-0.81-3.28-1.12-4.94c-0.42-2.22-2.55-3.68-4.77-3.26c-2.22,0.42-3.68,2.55-3.26,4.77
			c0.35,1.86,0.77,3.72,1.26,5.54c0.49,1.83,2.14,3.04,3.95,3.04c0.35,0,0.7-0.04,1.06-0.14C73.48,143.44,74.78,141.2,74.2,139.02z"
			/>
	</g>
</g>
<g>
	<g>
		<path class="st0" d="M215.15,113.07l-0.01-0.12c-0.25-2.24-2.25-3.86-4.51-3.62c-2.24,0.25-3.86,2.26-3.62,4.51l0.01,0.14
			c0.19,1.68,0.31,3.38,0.38,5.06c0.08,2.2,1.89,3.94,4.08,3.94c0.05,0,0.1,0,0.15,0c2.26-0.08,4.02-1.98,3.93-4.24
			C215.5,116.85,215.35,114.95,215.15,113.07z"/>
	</g>
</g>
<g>
	<g>
		<path class="st0" d="M68.7,109.37c-2.25-0.25-4.26,1.36-4.52,3.61c-0.21,1.87-0.35,3.78-0.42,5.66c-0.08,2.26,1.68,4.15,3.94,4.23
			c0.05,0,0.1,0,0.15,0c2.19,0,4-1.73,4.08-3.94c0.06-1.69,0.19-3.39,0.37-5.05C72.56,111.64,70.95,109.62,68.7,109.37z"/>
	</g>
</g>
<g>
	<g>
		<path class="st0" d="M75.44,89c-2.07-0.9-4.48,0.04-5.38,2.11c-0.76,1.73-1.46,3.51-2.08,5.29c-0.75,2.13,0.37,4.46,2.5,5.21
			c0.45,0.16,0.9,0.23,1.35,0.23c1.69,0,3.27-1.05,3.86-2.74c0.56-1.59,1.18-3.17,1.86-4.72C78.45,92.31,77.5,89.9,75.44,89z"/>
	</g>
</g>
<g>
	<g>
		<path class="st0" d="M211.35,96.36c-0.62-1.78-1.32-3.56-2.08-5.29c-0.9-2.07-3.31-3.01-5.38-2.11c-2.07,0.9-3.01,3.31-2.11,5.38
			c0.67,1.54,1.29,3.12,1.85,4.72c0.59,1.68,2.17,2.74,3.86,2.74c0.45,0,0.9-0.07,1.35-0.23C210.97,100.82,212.1,98.49,211.35,96.36
			z"/>
	</g>
</g>
<g>
	<g>
		<path class="st0" d="M87.87,71.51c-1.71-1.47-4.29-1.28-5.76,0.43c-1.23,1.43-2.42,2.92-3.54,4.44c-1.34,1.82-0.96,4.37,0.86,5.72
			c0.73,0.54,1.58,0.8,2.42,0.8c1.25,0,2.49-0.57,3.29-1.66c1-1.35,2.06-2.69,3.16-3.96C89.77,75.57,89.58,72.99,87.87,71.51z"/>
	</g>
</g>
<g>
	<g>
		<path class="st0" d="M200.76,76.35c-1.12-1.51-2.31-3.01-3.54-4.43c-1.47-1.71-4.06-1.9-5.76-0.42c-1.71,1.47-1.9,4.06-0.42,5.76
			c1.1,1.27,2.16,2.6,3.16,3.96c0.8,1.08,2.04,1.65,3.29,1.65c0.85,0,1.7-0.26,2.43-0.8C201.72,80.72,202.1,78.16,200.76,76.35z"/>
	</g>
</g>
<g>
	<g>
		<path class="st0" d="M104.88,58.46c-1.2-1.91-3.73-2.48-5.64-1.28c-1.59,1-3.17,2.08-4.69,3.2c-1.81,1.34-2.2,3.9-0.86,5.72
			c0.8,1.08,2.04,1.66,3.29,1.66c0.84,0,1.7-0.26,2.43-0.8c1.36-1,2.76-1.96,4.18-2.86C105.51,62.89,106.08,60.37,104.88,58.46z"/>
	</g>
</g>
<g>
	<g>
		<path class="st0" d="M184.75,60.37c-1.52-1.12-3.1-2.2-4.69-3.2c-1.91-1.2-4.43-0.63-5.64,1.28c-1.2,1.91-0.63,4.43,1.28,5.64
			c1.42,0.9,2.83,1.86,4.19,2.86c0.73,0.54,1.58,0.8,2.42,0.8c1.25,0,2.49-0.57,3.29-1.66C186.95,64.26,186.56,61.71,184.75,60.37z"
			/>
	</g>
</g>
<g>
	<g>
		<path class="st0" d="M125,51.02c-0.58-2.18-2.82-3.48-5-2.89c-1.82,0.49-3.65,1.05-5.43,1.67c-2.13,0.74-3.26,3.07-2.51,5.21
			c0.59,1.69,2.17,2.74,3.86,2.74c0.45,0,0.9-0.07,1.35-0.23c1.59-0.55,3.22-1.05,4.84-1.49C124.29,55.44,125.58,53.2,125,51.02z"/>
	</g>
</g>
<g>
	<g>
		<path class="st0" d="M164.74,49.78c-1.78-0.62-3.61-1.19-5.43-1.68c-2.18-0.58-4.42,0.71-5.01,2.89c-0.58,2.18,0.71,4.42,2.89,5
			c1.62,0.43,3.25,0.94,4.84,1.49c0.45,0.16,0.9,0.23,1.35,0.23c1.69,0,3.27-1.05,3.86-2.74C167.99,52.86,166.87,50.53,164.74,49.78
			z"/>
	</g>
</g>
<g>
	<g>
		<path class="st0" d="M275.08,257.12h-83.65l-3.06-10.71l2.36-0.67c0.27-0.08,0.52-0.18,0.76-0.3c0.03-0.02,0.06-0.04,0.09-0.05
			c0.09-0.05,0.17-0.09,0.25-0.15c0.05-0.03,0.09-0.06,0.14-0.1c0.06-0.04,0.13-0.09,0.19-0.14c0.04-0.04,0.09-0.07,0.13-0.11
			c0.06-0.05,0.12-0.1,0.17-0.15c0.03-0.03,0.06-0.07,0.1-0.1c0.06-0.06,0.12-0.12,0.18-0.19c0.02-0.02,0.03-0.04,0.04-0.06
			c0.15-0.18,0.29-0.38,0.4-0.59c0.11-0.21,0.21-0.42,0.28-0.64c0.01-0.03,0.02-0.06,0.03-0.09c0.02-0.07,0.04-0.14,0.06-0.22
			c0.02-0.06,0.03-0.11,0.05-0.17c0.01-0.05,0.02-0.11,0.03-0.17c0.01-0.08,0.03-0.15,0.04-0.23c0.01-0.04,0.01-0.09,0.01-0.13
			c0.01-0.09,0.02-0.18,0.02-0.26c0-0.05,0-0.09,0-0.14c0-0.09,0-0.17-0.01-0.26c-0.01-0.07-0.02-0.15-0.03-0.22
			c-0.01-0.06-0.01-0.12-0.02-0.18c-0.02-0.13-0.05-0.27-0.09-0.4l-5.86-20.55l1.83-0.54l1.37,4.81c0.38,1.33,1.25,2.43,2.46,3.11
			c0.78,0.43,1.64,0.65,2.51,0.65c0.48,0,0.96-0.07,1.43-0.2l7.94-2.27c0,0,0,0,0,0c2.74-0.78,4.34-3.66,3.56-6.4l-4.98-17.45
			c-0.38-1.33-1.25-2.43-2.46-3.11c-1.21-0.67-2.6-0.83-3.94-0.45l-7.94,2.27c-2.74,0.78-4.34,3.65-3.56,6.4l1.36,4.78l-1.83,0.54
			l-15.96-55.94c-0.62-2.17-2.88-3.43-5.05-2.81c-2.17,0.62-3.43,2.88-2.81,5.05l15.95,55.91l-4.72,1.35l-31.42-110.12
			c1.06-0.1,2.1-0.29,3.11-0.58c0.57-0.16,1.13-0.35,1.68-0.57l10.35,36.27c0.51,1.8,2.15,2.97,3.93,2.97
			c0.37,0,0.75-0.05,1.12-0.16c2.17-0.62,3.43-2.88,2.81-5.05l-11.14-39.04c2.79-3.24,4.36-7.39,4.36-11.73V65.41
			c0-2.26-1.83-4.09-4.09-4.09h-3.26v-3.59c0-2.26-1.83-4.09-4.09-4.09s-4.09,1.83-4.09,4.09v3.59h-4.92V33.16h4.92v5.36
			c0,2.26,1.83,4.09,4.09,4.09s4.09-1.83,4.09-4.09v-9.45c0-2.26-1.83-4.09-4.09-4.09h-13.09c-2.26,0-4.09,1.83-4.09,4.09v32.25
			h-3.26c-2.26,0-4.09,1.83-4.09,4.09v22.44c0,4.34,1.57,8.48,4.36,11.72l-23.76,83.27c-0.62,2.17,0.64,4.43,2.81,5.05
			c0.37,0.11,0.75,0.16,1.12,0.16c1.78,0,3.42-1.17,3.93-2.97l22.71-79.61l2.55,8.95l-28.94,101.41l-4.72-1.35l3.17-11.13
			c0.62-2.17-0.64-4.43-2.81-5.05c-2.17-0.62-4.43,0.64-5.05,2.81l-3.18,11.15l-1.83-0.54l1.36-4.78c0.78-2.74-0.81-5.61-3.56-6.4
			l-7.94-2.27c-1.33-0.38-2.73-0.22-3.93,0.45c-1.21,0.67-2.08,1.78-2.46,3.1l-4.98,17.45c-0.78,2.74,0.81,5.62,3.56,6.4
			c0,0,0,0,0,0l7.94,2.27c0.47,0.13,0.95,0.2,1.43,0.2c0.87,0,1.73-0.22,2.51-0.65c1.21-0.67,2.08-1.78,2.46-3.1l1.37-4.81
			l1.83,0.54l-5.86,20.55c-0.04,0.13-0.07,0.27-0.09,0.4c-0.01,0.06-0.02,0.12-0.02,0.18c-0.01,0.07-0.02,0.15-0.03,0.22
			c-0.01,0.09-0.01,0.17-0.01,0.26c0,0.05,0,0.09,0,0.14c0,0.09,0.01,0.18,0.02,0.26c0,0.04,0,0.09,0.01,0.13
			c0.01,0.08,0.02,0.15,0.04,0.23c0.01,0.06,0.02,0.11,0.03,0.17c0.01,0.06,0.03,0.11,0.05,0.17c0.02,0.07,0.04,0.14,0.06,0.22
			c0.01,0.03,0.02,0.06,0.03,0.09c0.08,0.22,0.17,0.43,0.28,0.64c0.12,0.21,0.25,0.41,0.4,0.59c0.02,0.02,0.03,0.04,0.04,0.06
			c0.06,0.07,0.12,0.13,0.18,0.19c0.03,0.03,0.06,0.07,0.1,0.1c0.06,0.05,0.11,0.1,0.17,0.15c0.04,0.04,0.08,0.08,0.13,0.11
			c0.06,0.05,0.12,0.09,0.19,0.14c0.05,0.03,0.09,0.07,0.14,0.1c0.08,0.05,0.17,0.1,0.25,0.15c0.03,0.02,0.06,0.04,0.09,0.05
			c0.24,0.13,0.5,0.23,0.76,0.3l2.36,0.67l-3.06,10.71H4.26c-2.26,0-4.09,1.83-4.09,4.09c0,2.26,1.83,4.09,4.09,4.09h86.72
			c0,0,0.01,0,0.02,0c0,0,0.01,0,0.01,0h97.33c0,0,0.01,0,0.01,0c0,0,0.01,0,0.02,0h86.72c2.26,0,4.09-1.83,4.09-4.09
			C279.17,258.95,277.34,257.12,275.08,257.12z M196.77,206.97l3.33,11.68l-2.18,0.62l-3.33-11.68L196.77,206.97z M81.41,219.28
			l-2.18-0.62l3.33-11.68l2.18,0.62L81.41,219.28z M133.41,95.39c-0.04-0.04-0.08-0.07-0.12-0.11c-2.18-1.86-3.42-4.57-3.42-7.44
			V69.49h19.61v18.35c0,2.87-1.25,5.58-3.43,7.45c-1.07,0.92-2.35,1.6-3.72,1.99c-1.7,0.48-3.58,0.49-5.32-0.01
			C135.69,96.91,134.46,96.26,133.41,95.39z M99.52,222.35l4.72,1.35l-4.75,16.64l-4.72-1.35L99.52,222.35z M96.4,257.12l2.42-8.47
			l2.36,0.67c0.37,0.11,0.75,0.16,1.12,0.16c1.34,0,2.59-0.66,3.35-1.75c0.25-0.36,0.45-0.77,0.58-1.22l33.44-117.19l33.44,117.19
			c0.13,0.45,0.33,0.86,0.58,1.22c0.76,1.09,2.01,1.75,3.35,1.75c0.37,0,0.75-0.05,1.12-0.16l2.36-0.67l2.42,8.47H96.4L96.4,257.12z
			 M179.85,240.34l-4.75-16.64l4.72-1.35l4.75,16.64L179.85,240.34z"/>
	</g>
</g>
<g>
	<g>
		<circle class="st0" cx="139.67" cy="87.65" r="4.09"/>
	</g>
</g>
</svg>
