<?xml version="1.0" encoding="utf-8"?>
<!-- Generator: Adobe Illustrator 28.0.0, SVG Export Plug-In . SVG Version: 6.00 Build 0)  -->
<svg version="1.1" id="OBJECT" xmlns="http://www.w3.org/2000/svg" xmlns:xlink="http://www.w3.org/1999/xlink" x="0px" y="0px"
	 width="283.46px" height="283.46px" viewBox="0 0 283.46 283.46" style="enable-background:new 0 0 283.46 283.46;"
	 xml:space="preserve">
<style type="text/css">
	.st0{fill:#153E8B;}
</style>
<path class="st0" d="M274.82,198.84l-26.17-83.75c-0.52-1.63-2.03-2.74-3.74-2.74H37.1c-1.72,0-3.24,1.11-3.75,2.75L7.18,198.85
	C7.06,199.23,7,199.63,7,200.03v26.17c0,2.17,1.76,3.93,3.93,3.93H79.5v18.32H57.25c-6.5,0-11.78,5.27-11.78,11.78
	c0,6.5,5.27,11.78,11.78,11.78h167.5c6.5,0,11.78-5.27,11.78-11.78c0-6.5-5.27-11.78-11.78-11.78H202.5v-18.32h68.57
	c2.17,0,3.93-1.76,3.93-3.93l0,0v-26.17C275,199.62,274.94,199.22,274.82,198.84z M16.26,196.1l10.63-34.02H68.7L60.2,196.1H16.26z
	 M76.81,162.08h128.39l8.51,34.02H68.3L76.81,162.08z M78.77,154.23l8.51-34.02h107.45l8.51,34.02H78.77z M221.8,196.1l-8.51-34.02
	h41.82l10.63,34.02H221.8z M252.65,154.23h-41.32l-8.51-34.02h39.2L252.65,154.23z M39.98,120.2h39.2l-8.51,34.02H29.35L39.98,120.2
	z M87.35,230.13h13.09v18.32H87.35V230.13z M108.29,248.45v-18.32h65.43v18.32H108.29z M228.68,260.22c0,2.17-1.76,3.93-3.93,3.93
	l0,0H57.25c-2.17,0-3.93-1.76-3.93-3.93c0-2.17,1.76-3.93,3.93-3.93h167.5C226.92,256.3,228.68,258.05,228.68,260.22L228.68,260.22z
	 M194.65,248.45h-13.09v-18.32h13.09V248.45z M267.15,222.27H14.85v-18.32h252.3V222.27z"/>
<path class="st0" d="M26.63,217.04h5.23c2.17,0,3.93-1.76,3.93-3.93s-1.76-3.93-3.93-3.93h-5.23c-2.17,0-3.93,1.76-3.93,3.93
	S24.46,217.04,26.63,217.04z"/>
<path class="st0" d="M47.57,217.04h5.23c2.17,0,3.93-1.76,3.93-3.93s-1.76-3.93-3.93-3.93h-5.23c-2.17,0-3.93,1.76-3.93,3.93
	S45.4,217.04,47.57,217.04z"/>
<g>
	<path class="st0" d="M141,58.18c2.17,0,3.93-1.76,3.93-3.93l0,0V28.86c0-2.17-1.76-3.93-3.93-3.93c-2.17,0-3.93,1.76-3.93,3.93
		v25.39C137.07,56.42,138.83,58.18,141,58.18L141,58.18z"/>
	<path class="st0" d="M141,17.09c2.17,0,3.93-1.76,3.93-3.93V7.93c0-2.17-1.76-3.93-3.93-3.93c-2.17,0-3.93,1.76-3.93,3.93v5.23
		C137.07,15.33,138.83,17.09,141,17.09z"/>
	<path class="st0" d="M222.54,83.21l-23.85,8.68c-2.04,0.74-3.09,2.99-2.35,5.03c0.56,1.55,2.04,2.59,3.69,2.59
		c0.46,0,0.91-0.08,1.35-0.24l23.85-8.68c2.04-0.74,3.09-2.99,2.35-5.03C226.83,83.52,224.57,82.47,222.54,83.21L222.54,83.21z"/>
	<path class="st0" d="M247.26,78.39c-0.74-2.04-2.99-3.09-5.02-2.35c0,0,0,0-0.01,0l-4.92,1.79c-2.04,0.74-3.09,2.99-2.35,5.03
		c0.56,1.55,2.04,2.59,3.7,2.59c0.46,0,0.91-0.08,1.34-0.24l4.92-1.79C246.95,82.68,248,80.43,247.26,78.39
		C247.26,78.39,247.26,78.39,247.26,78.39L247.26,78.39z"/>
	<path class="st0" d="M193.87,41.6c-1.78-1.24-4.22-0.81-5.47,0.96l-14.58,20.8c-1.24,1.78-0.81,4.23,0.97,5.47
		c1.78,1.24,4.23,0.81,5.47-0.97l0,0l14.56-20.8C196.07,45.29,195.64,42.85,193.87,41.6C193.87,41.6,193.87,41.6,193.87,41.6
		L193.87,41.6z"/>
	<path class="st0" d="M198.34,35.17c1.78,1.24,4.22,0.81,5.47-0.96c0,0,0,0,0,0l3-4.29c1.3-1.73,0.95-4.19-0.78-5.5
		c-1.73-1.3-4.19-0.95-5.5,0.78c-0.05,0.07-0.1,0.14-0.15,0.21l-3,4.29C196.14,31.48,196.57,33.92,198.34,35.17L198.34,35.17z"/>
	<path class="st0" d="M83.32,91.89l-23.85-8.68c-2.04-0.74-4.29,0.31-5.03,2.35c-0.74,2.04,0.31,4.29,2.35,5.03l23.85,8.68
		c0.43,0.15,0.89,0.23,1.35,0.24c2.17,0,3.93-1.76,3.93-3.93C85.9,93.92,84.87,92.45,83.32,91.89L83.32,91.89z"/>
	<path class="st0" d="M44.69,77.84l-4.92-1.79c-2.04-0.74-4.29,0.31-5.03,2.35c-0.74,2.04,0.31,4.29,2.35,5.03L42,85.22
		c0.43,0.15,0.88,0.23,1.34,0.24c2.17,0,3.93-1.75,3.93-3.92C47.28,79.88,46.24,78.4,44.69,77.84z"/>
	<path class="st0" d="M104.98,69.53c2.17,0,3.92-1.75,3.92-3.92c0-0.81-0.25-1.6-0.71-2.26l-14.56-20.8
		c-1.24-1.78-3.69-2.21-5.47-0.97c-1.78,1.24-2.21,3.69-0.97,5.47l14.55,20.8C102.48,68.92,103.69,69.54,104.98,69.53z"/>
	<path class="st0" d="M78.19,34.2c1.24,1.78,3.69,2.21,5.47,0.97c1.78-1.24,2.21-3.69,0.97-5.47l-3-4.29
		c-1.18-1.82-3.62-2.33-5.43-1.14c-1.82,1.18-2.33,3.62-1.14,5.43c0.05,0.07,0.1,0.14,0.15,0.21L78.19,34.2z"/>
	<path class="st0" d="M190.46,104.5c-6.94-27.32-34.71-43.84-62.03-36.9c-18.14,4.61-32.3,18.77-36.9,36.9H190.46z M112.21,84.75
		c6.6-6.59,15.55-10.28,24.87-10.26c2.17,0,3.93,1.76,3.93,3.93c0,2.17-1.76,3.93-3.93,3.93c-7.25-0.02-14.21,2.86-19.34,7.98
		c-1.51,1.55-4,1.59-5.55,0.08c-1.55-1.51-1.59-4-0.08-5.55C112.15,84.81,112.18,84.78,112.21,84.75z"/>
</g>
</svg>
