<?xml version="1.0" encoding="utf-8"?>
<!-- Generator: Adobe Illustrator 28.0.0, SVG Export Plug-In . SVG Version: 6.00 Build 0)  -->
<svg version="1.1" id="OBJECT" xmlns="http://www.w3.org/2000/svg" xmlns:xlink="http://www.w3.org/1999/xlink" x="0px" y="0px"
	 width="283.5px" height="283.5px" viewBox="0 0 283.5 283.5" style="enable-background:new 0 0 283.5 283.5;" xml:space="preserve"
	>
<style type="text/css">
	.st0{fill:#153E8B;}
</style>
<g>
	<path class="st0" d="M152.9,139.2v101.1h-20.1V143 M137.2,143v92.9h11.3v-96.8"/>
</g>
<g>
	<path class="st0" d="M236.5,256.4h-190c-5.5,0-10-4.5-10-10s4.5-10,10-10h190c5.5,0,10,4.5,10,10S242.1,256.4,236.5,256.4z
		 M46.5,240.7c-3.1,0-5.7,2.5-5.7,5.7s2.5,5.7,5.7,5.7h190c3.1,0,5.7-2.5,5.7-5.7s-2.5-5.7-5.7-5.7H46.5z"/>
</g>
<g>
	<path class="st0" d="M233.1,122L48.3,166.1c-5.4,1.3-10.8-2.1-12.1-7.4c-1.3-5.4,2.1-10.8,7.4-12.1l184.8-44.1
		c5.4-1.3,10.8,2.1,12.1,7.4C241.8,115.3,238.5,120.7,233.1,122z M44.6,150.8c-3,0.7-4.9,3.8-4.2,6.8s3.8,4.9,6.8,4.2l184.8-44.1
		c3-0.7,4.9-3.8,4.2-6.8c-0.7-3-3.8-4.9-6.8-4.2L44.6,150.8z"/>
</g>
<g>
	<path class="st0" d="M226.4,97.1L41.6,141.2c-5.4,1.3-10.8-2.1-12.1-7.4c-1.3-5.4,2.1-10.8,7.4-12.1l184.8-44.1
		c5.4-1.3,10.8,2.1,12.1,7.4C235.1,90.4,231.8,95.8,226.4,97.1z M38,125.9c-3,0.7-4.9,3.8-4.2,6.8c0.7,3,3.8,4.9,6.8,4.2l184.8-44.1
		c3-0.7,4.9-3.8,4.2-6.8c-0.7-3-3.8-4.9-6.8-4.2L38,125.9z"/>
</g>
<g>
	
		<rect x="121.6" y="145.3" transform="matrix(0.7109 -0.7033 0.7033 0.7109 -77.6257 133.6585)" class="st0" width="4.4" height="31.9"/>
</g>
<g>
	
		<rect x="112.2" y="145.5" transform="matrix(0.7094 -0.7049 0.7049 0.7094 -89.5183 131.2359)" class="st0" width="4.4" height="57.3"/>
</g>
<g>
	<polygon class="st0" points="153.1,162.5 182.9,133.7 179.8,130.7 150,159.5 	"/>
</g>
<g>
	<polygon class="st0" points="152,184.2 215.7,126.3 207.9,127.5 148.9,181.1 	"/>
</g>
<g>
	<path class="st0" d="M144.1,55.5c1.5-0.4,2.4-1.9,2.1-3.4l0,0l-4.1-17.6c-0.4-1.5-1.9-2.4-3.4-2.1c-1.5,0.4-2.4,1.9-2.1,3.4
		l4.1,17.6C141.1,54.9,142.6,55.9,144.1,55.5L144.1,55.5z"/>
	<path class="st0" d="M137.4,27c1.5-0.4,2.4-1.9,2.1-3.4l-0.8-3.6c-0.4-1.5-1.9-2.4-3.4-2.1c-1.5,0.4-2.4,1.9-2.1,3.4l0.8,3.6
		C134.4,26.4,135.9,27.4,137.4,27z"/>
	<path class="st0" d="M204.7,59.7l-15.1,9.9c-1.3,0.8-1.7,2.6-0.8,3.9c0.6,1,1.8,1.5,3,1.2c0.3-0.1,0.6-0.2,0.9-0.4l15.1-9.9
		c1.3-0.8,1.7-2.6,0.8-3.9C207.7,59.2,206,58.8,204.7,59.7L204.7,59.7z"/>
	<path class="st0" d="M221.1,52.3c-0.8-1.3-2.6-1.7-3.9-0.8c0,0,0,0,0,0l-3.1,2c-1.3,0.8-1.7,2.6-0.8,3.9c0.6,1,1.8,1.5,3,1.2
		c0.3-0.1,0.6-0.2,0.9-0.4l3.1-2C221.6,55.3,221.9,53.6,221.1,52.3L221.1,52.3L221.1,52.3z"/>
	<path class="st0" d="M178.1,35.4c-1.4-0.6-3.1,0.1-3.6,1.6l-6.7,16.8c-0.6,1.4,0.1,3.1,1.6,3.6c1.4,0.6,3.1-0.1,3.6-1.6l0,0
		l6.7-16.8C180.2,37.6,179.5,36,178.1,35.4L178.1,35.4L178.1,35.4z"/>
	<path class="st0" d="M180.1,30.3c1.4,0.6,3.1-0.1,3.6-1.6l0,0l1.4-3.5c0.6-1.4,0-3.1-1.4-3.7c-1.4-0.6-3.1,0-3.7,1.4
		c0,0.1,0,0.1-0.1,0.2l-1.4,3.5C178,28.1,178.7,29.7,180.1,30.3L180.1,30.3z"/>
	<path class="st0" d="M109.5,88.3l-18-2.2c-1.5-0.2-2.9,0.9-3.1,2.4c-0.2,1.5,0.9,2.9,2.4,3.1l18,2.2c0.3,0,0.7,0,1-0.1
		c1.5-0.4,2.4-1.9,2.1-3.4C111.7,89.2,110.7,88.4,109.5,88.3L109.5,88.3z"/>
	<path class="st0" d="M80.5,84.8l-3.7-0.4c-1.5-0.2-2.9,0.9-3.1,2.4c-0.2,1.5,0.9,2.9,2.4,3.1l3.7,0.4c0.3,0,0.6,0,1-0.1
		c1.5-0.4,2.4-1.9,2.1-3.4C82.6,85.8,81.6,84.9,80.5,84.8z"/>
	<path class="st0" d="M120.9,69.2c1.5-0.4,2.4-1.8,2.1-3.4c-0.1-0.6-0.4-1.1-0.9-1.5l-13.5-12.1c-1.1-1-2.9-0.9-4,0.2
		c-1,1.1-0.9,2.9,0.2,4l13.5,12.1C119.1,69.2,120.1,69.4,120.9,69.2z"/>
	<path class="st0" d="M96.6,49.1c1.1,1,2.9,0.9,4-0.2c1-1.1,0.9-2.9-0.2-4l-2.8-2.5c-1.1-1.1-2.9-1-4,0.1c-1.1,1.1-1,2.9,0.1,4
		c0,0,0.1,0.1,0.1,0.1L96.6,49.1z"/>
	<path class="st0" d="M185.9,79.6c-9.2-17.8-31.2-24.8-49-15.5c-11.8,6.1-19.4,18.3-19.6,31.6L185.9,79.6z M128.4,78.6
		c3.5-5.6,9.1-9.7,15.6-11.1c1.5-0.4,3,0.6,3.4,2.1c0.4,1.5-0.6,3-2.1,3.4c-5,1.2-9.4,4.3-12.1,8.7c-0.8,1.3-2.5,1.8-3.8,1
		C128,81.7,127.6,80,128.4,78.6C128.4,78.7,128.4,78.6,128.4,78.6z"/>
</g>
</svg>
