<?xml version="1.0" encoding="utf-8"?>
<!-- Generator: Adobe Illustrator 28.0.0, SVG Export Plug-In . SVG Version: 6.00 Build 0)  -->
<svg version="1.1" id="OBJECT" xmlns="http://www.w3.org/2000/svg" xmlns:xlink="http://www.w3.org/1999/xlink" x="0px" y="0px"
	 width="283.46px" height="283.46px" viewBox="0 0 283.46 283.46" style="enable-background:new 0 0 283.46 283.46;"
	 xml:space="preserve">
<style type="text/css">
	.st0{fill:#153E8B;}
</style>
<g>
	<g>
		<path class="st0" d="M191.75,78.37c-1.87-0.99-4.18-0.27-5.16,1.6c-0.59,1.13-1.36,2.16-2.27,3.07c-4.98,4.98-13.07,4.98-18.05,0
			c-4.98-4.98-4.98-13.07,0-18.05c4.98-4.98,13.07-4.98,18.05,0c0.57,0.57,1.08,1.19,1.53,1.84c1.19,1.74,3.57,2.19,5.31,1
			c1.74-1.19,2.19-3.57,1-5.31c-0.71-1.05-1.53-2.04-2.44-2.94c-7.96-7.96-20.9-7.96-28.86,0c-7.96,7.96-7.96,20.9,0,28.86
			c3.98,3.98,9.2,5.97,14.43,5.97c5.23,0,10.45-1.99,14.43-5.97c1.45-1.45,2.67-3.1,3.62-4.91
			C194.33,81.66,193.62,79.35,191.75,78.37z"/>
	</g>
</g>
<g>
	<g>
		<path class="st0" d="M264.09,199.75l-27.01-27.01c-1.65-1.65-4.07-2.3-6.32-1.69l-19.23,5.15l-42.45-42.45h16.29
			c3.22,0,5.83-2.61,5.83-5.83v-15.57l11.01,11.01c1.1,1.1,2.57,1.71,4.12,1.71c0,0,0.01,0,0.01,0c1.56,0,3.02-0.61,4.11-1.71
			l14.22-14.22c2.27-2.27,2.27-5.97,0-8.24l-11-11.01h15.57c3.21,0,5.83-2.61,5.83-5.83V63.95c0-3.21-2.61-5.83-5.83-5.83h-15.57
			l11-11c2.27-2.27,2.27-5.97,0-8.24l-14.22-14.21c-1.1-1.1-2.56-1.71-4.12-1.72c0,0-0.01,0-0.01,0c-1.56,0-3.02,0.61-4.12,1.71
			l-11.01,11.01V20.09c0-3.21-2.61-5.83-5.83-5.83h-20.11c-3.22,0-5.83,2.61-5.83,5.83v15.57L148.4,24.65
			c-1.1-1.1-2.57-1.71-4.12-1.71c0,0-0.01,0-0.01,0c-1.56,0-3.02,0.61-4.11,1.71l-14.24,14.23c-2.25,2.27-2.25,5.96,0.01,8.23
			l11.01,11h-15.56c-3.22,0-5.83,2.61-5.83,5.83v16.29l-6.02-6.02l5.15-19.23c0.6-2.25-0.05-4.67-1.69-6.32l-7.51-7.51
			c-1.49-1.49-3.91-1.49-5.41,0c-1.49,1.49-1.49,3.91,0,5.4l7.07,7.06l-5.15,19.23c-0.6,2.25,0.05,4.67,1.69,6.32l24.69,24.69
			c0,0,0.01,0.01,0.01,0.01c0,0,0.01,0.01,0.01,0.01l17.04,17.04c0,0,0.01,0.01,0.01,0.01c0,0,0.01,0.01,0.01,0.01l61.12,61.11
			c1.65,1.65,4.07,2.3,6.32,1.69l19.23-5.15l26.11,26.11l-4.75,17.75l-23.67-23.67c-1.24-1.24-2.88-1.92-4.63-1.92
			c-1.75,0-3.39,0.68-4.63,1.92l-13.47,13.47c-2.55,2.55-2.55,6.7,0,9.25l23.67,23.67L213,249.93l-26.11-26.11l5.15-19.23
			c0.6-2.25-0.05-4.67-1.69-6.32L87.44,95.38c-1.65-1.65-4.07-2.3-6.32-1.69l-19.23,5.15L35.77,72.73l4.75-17.75L64.2,78.65
			c1.24,1.24,2.88,1.92,4.63,1.92c1.75,0,3.39-0.68,4.63-1.92l13.47-13.47c1.24-1.24,1.92-2.88,1.92-4.63
			c0-1.75-0.68-3.39-1.92-4.63L63.26,32.26l17.75-4.75L87,33.49c1.49,1.49,3.91,1.49,5.41,0c1.49-1.49,1.49-3.91,0-5.4l-6.44-6.44
			c-1.65-1.65-4.07-2.3-6.32-1.69l-20.21,5.41c-2.28,0.61-4.01,2.34-4.63,4.63c-0.61,2.28,0.02,4.65,1.69,6.32l24.24,24.24
			L68.83,72.47L44.59,48.23c-1.67-1.67-4.04-2.31-6.32-1.69c-2.29,0.61-4.02,2.34-4.63,4.63l-5.41,20.2
			c-0.6,2.25,0.05,4.67,1.69,6.32l27.01,27.01c1.65,1.65,4.07,2.3,6.32,1.69l19.23-5.15l17.16,17.15c-0.98,1.14-1.58,2.62-1.58,4.24
			v24.34l-17.21-17.21c-2.55-2.55-6.7-2.55-9.25,0l-19.27,19.26c-2.55,2.55-2.55,6.7,0,9.25l17.22,17.22H45.21
			c-3.61,0-6.54,2.93-6.54,6.54v27.24c0,3.6,2.93,6.54,6.54,6.54h24.35l-17.22,17.22c-2.55,2.55-2.55,6.7,0,9.25l19.26,19.25
			c1.24,1.24,2.88,1.92,4.63,1.92c1.75,0,3.4-0.68,4.62-1.92l17.21-17.21v24.34c0,3.61,2.94,6.54,6.54,6.54h27.24
			c3.61,0,6.54-2.93,6.54-6.54v-24.34l17.21,17.21c1.28,1.28,2.95,1.91,4.63,1.91c1.68,0,3.35-0.64,4.63-1.91l19.26-19.26
			c2.55-2.55,2.55-6.7,0-9.25L166.9,215.8h14.22l-1.78,6.66c-0.6,2.25,0.05,4.67,1.69,6.32l27.01,27.01
			c1.24,1.24,2.92,1.92,4.64,1.92c0.56,0,1.13-0.07,1.69-0.22l20.2-5.41c2.29-0.61,4.02-2.34,4.63-4.63
			c0.61-2.28-0.02-4.65-1.69-6.32l-24.24-24.24l11.92-11.91l24.24,24.24c1.67,1.67,4.04,2.31,6.32,1.69
			c2.29-0.61,4.02-2.34,4.63-4.63l5.41-20.2C266.38,203.82,265.73,201.4,264.09,199.75z M214.05,65.76h13.36v16.49h-13.36
			C215.19,76.82,215.19,71.19,214.05,65.76z M217.97,105.02l-11.66,11.66l-9.42-9.43c2.29-1.5,4.45-3.24,6.44-5.22
			c2-2,3.73-4.16,5.22-6.44L217.97,105.02z M206.31,31.34l11.66,11.66l-9.43,9.43c-1.48-2.28-3.22-4.44-5.22-6.44
			c-1.98-1.98-4.14-3.72-6.44-5.22L206.31,31.34z M167.05,21.9h16.49v13.33c-2.68-0.56-5.44-0.86-8.24-0.86
			c-2.8,0-5.56,0.3-8.24,0.86L167.05,21.9L167.05,21.9z M132.62,42.99l11.66-11.66l9.42,9.43c-2.29,1.5-4.45,3.24-6.44,5.22
			c-1.98,1.98-3.72,4.14-5.22,6.44L132.62,42.99z M123.18,65.76h13.33c-0.56,2.68-0.86,5.44-0.86,8.24s0.3,5.56,0.86,8.24h-13.33
			V65.76z M125.2,89.89h11.73l-5.87,5.87L125.2,89.89z M136.47,101.17l5.57-5.57c1.5,2.3,3.24,4.46,5.22,6.44
			c1.98,1.98,4.14,3.72,6.44,5.22l-5.57,5.57L136.47,101.17z M159.41,124.1l-5.87-5.87l5.87-5.87V124.1z M164.37,104.09
			c-0.89-0.32-1.77-0.69-2.63-1.09c-0.06-0.03-0.11-0.05-0.17-0.08c-3.26-1.55-6.27-3.66-8.89-6.29c-2.59-2.59-4.67-5.54-6.22-8.74
			c-0.05-0.13-0.11-0.25-0.18-0.38c-0.38-0.82-0.73-1.66-1.04-2.52c-0.04-0.14-0.09-0.28-0.15-0.42c-1.17-3.35-1.78-6.91-1.78-10.57
			c0-3.66,0.61-7.22,1.78-10.57c0.06-0.13,0.11-0.27,0.15-0.41c0.31-0.85,0.66-1.7,1.04-2.52c0.07-0.12,0.13-0.25,0.18-0.38
			c1.54-3.2,3.63-6.16,6.22-8.74c2.63-2.63,5.63-4.74,8.89-6.29c0.06-0.03,0.12-0.05,0.18-0.08c0.86-0.4,1.74-0.77,2.63-1.09
			c0.07-0.02,0.13-0.05,0.2-0.07c3.4-1.21,7.02-1.84,10.73-1.84c3.72,0,7.34,0.63,10.74,1.84c0.06,0.02,0.12,0.05,0.18,0.07
			c0.9,0.33,1.79,0.7,2.66,1.1c0.05,0.02,0.09,0.04,0.14,0.07c3.26,1.55,6.27,3.67,8.9,6.3c12.48,12.47,12.48,32.77,0,45.24
			c-2.63,2.63-5.64,4.74-8.9,6.29c-0.05,0.02-0.1,0.04-0.15,0.07c-0.87,0.41-1.75,0.77-2.66,1.1c-0.06,0.02-0.12,0.04-0.18,0.07
			c-3.4,1.21-7.02,1.84-10.74,1.84c-3.71,0-7.33-0.63-10.73-1.84C164.5,104.14,164.43,104.11,164.37,104.09z M167.05,112.78
			c2.68,0.56,5.44,0.86,8.24,0.86c2.8,0,5.56-0.3,8.24-0.86v13.33h-16.49L167.05,112.78L167.05,112.78z M67.42,208.15h-21.1v-25.02
			h21.12c-1,4.04-1.53,8.23-1.53,12.51C65.9,199.96,66.43,204.14,67.42,208.15z M105.71,124.46l19.31,19.31
			c-2.24-0.29-4.51-0.44-6.79-0.44c-4.26,0-8.45,0.52-12.52,1.52V124.46z M58.53,153.65l17.7-17.69l14.92,14.92
			c-7.3,4.42-13.34,10.54-17.68,17.71L58.53,153.65z M76.23,255.33l-17.7-17.69l14.94-14.93c4.39,7.23,10.47,13.31,17.7,17.7
			L76.23,255.33z M130.75,267.54h-25.03v-21.1c4.01,0.99,8.2,1.52,12.52,1.52c4.28,0,8.48-0.53,12.52-1.53V267.54z M118.23,240.31
			c-24.64,0-44.68-20.04-44.68-44.67c0-18.83,11.91-35.74,29.63-42.08c4.81-1.72,9.87-2.6,15.05-2.6c5.18,0,10.24,0.87,15.06,2.6
			c0.89,0.32,1.74,0.66,2.56,1.01l23.47,23.46c0.35,0.81,0.68,1.66,1,2.55c1.72,4.81,2.6,9.87,2.6,15.05
			c0,5.17-0.87,10.23-2.6,15.05C153.97,228.41,137.06,240.31,118.23,240.31z M177.93,237.64l-17.7,17.7l-14.94-14.94
			c7.18-4.34,13.3-10.38,17.72-17.68L177.93,237.64z M183.17,208.15h-14.13c1-4.07,1.52-8.26,1.52-12.51c0-2.28-0.15-4.55-0.44-6.79
			l14.37,14.37L183.17,208.15z"/>
	</g>
</g>
<g>
	<g>
		<path class="st0" d="M199.99,186.93L98.78,85.74c-1.49-1.49-3.91-1.49-5.41,0c-1.49,1.49-1.49,3.91,0,5.4l101.21,101.19
			c0.75,0.75,1.73,1.12,2.7,1.12c0.98,0,1.96-0.37,2.7-1.12C201.48,190.84,201.48,188.42,199.99,186.93z"/>
	</g>
</g>
<g>
	<g>
		<path class="st0" d="M118.23,169.37c-14.49,0-26.28,11.79-26.28,26.28c0,2.72,0.41,5.4,1.23,7.97c0.64,2.01,2.79,3.12,4.8,2.48
			c2.01-0.64,3.12-2.79,2.48-4.8c-0.58-1.82-0.87-3.72-0.87-5.66c0-10.27,8.36-18.63,18.63-18.63c10.28,0,18.64,8.36,18.64,18.63
			c0,10.27-8.36,18.63-18.64,18.63c-2.87,0-5.62-0.63-8.17-1.88c-1.9-0.93-4.19-0.14-5.11,1.76c-0.93,1.9-0.14,4.19,1.76,5.11
			c3.61,1.76,7.49,2.66,11.53,2.66c14.49,0,26.28-11.79,26.28-26.28S132.72,169.37,118.23,169.37z"/>
	</g>
</g>
</svg>
