<?xml version="1.0" encoding="utf-8"?>
<!-- Generator: Adobe Illustrator 28.0.0, SVG Export Plug-In . SVG Version: 6.00 Build 0)  -->
<svg version="1.1" id="OBJECT" xmlns="http://www.w3.org/2000/svg" xmlns:xlink="http://www.w3.org/1999/xlink" x="0px" y="0px"
	 width="283.5px" height="283.5px" viewBox="0 0 283.5 283.5" style="enable-background:new 0 0 283.5 283.5;" xml:space="preserve"
	>
<style type="text/css">
	.st0{fill:#FFFFFF;}
</style>
<g>
	<g id="Groupe_981">
		<g>
			<path id="Tracé_408_00000183248579065914091480000007902185326060237200_" class="st0" d="M137.1,52.7c3.3-0.6,6.4-1.2,9.6-1.6
				c6.1-0.8,12.2-0.6,18.3,0.4c16.1,2.6,30.9,10.7,41.6,23.1c8.8,9.8,14.5,21.9,16.6,34.9c0.4,2.6,0.6,5.2,0.8,7.8
				c0.1,1,0.4,1.2,1.3,1.2c3.3,0,6.7-0.1,10,0c2-0.3,3.9,1.1,4.2,3.1c0.1,0.4,0.1,0.7,0,1.1c0,1.1,0.1,2.2,0,3.3
				c-0.1,0.9,0.3,1.2,1.2,1.4c8.2,1.7,14.9,7.4,17.9,15.3c4.6,12.1-1.3,25.8-13.3,30.7c-1.6,0.6-3.3,1.1-4.9,1.5
				c-0.8,0.2-1.3,0.5-1.2,1.5c0.1,1.2,0.1,2.3,0.1,3.5c0.2,2-1.3,3.8-3.3,4c-0.2,0-0.4,0-0.7,0c-5,0-10,0-15-0.1
				c-5.8,0-10.6-4.6-11-10.4c-0.2-4.8-0.1-9.7-0.1-14.5c0-9.2,0-18.5,0-27.8c-0.2-4.7,2.4-9.1,6.7-11.1c0.4-0.3,0.7-0.8,0.7-1.3
				c-0.4-13.5-5.4-26.5-14-36.9c-8.2-10.1-19.3-17.4-31.9-20.9c-10.8-3-22.1-3-32.9,0c-0.9,0.2-1,0.8-1,1.5c0,8.9-0.2,17.9,0.1,26.8
				c0.3,6.8-4.9,12.7-11.7,13.2c-0.1,0-0.2,0.1-0.3,0.1c0,0.8,0,1.6,0,2.4c0,5.8,0,11.6,0,17.4c0.2,2-1.2,3.8-3.2,4
				c-1,0.1-1.9-0.2-2.7-0.8c-8.2-5.5-16.3-11.1-24.4-16.7c-0.3-0.2-0.7-0.4-1.2-0.8c-0.4,1.3-0.7,2.6-0.9,3.8
				c-0.3,2.3-0.4,4.6-0.6,6.8c-0.1,0.7,0.2,1,0.8,1.2c4.1,1.6,6.7,5.6,6.6,9.9c0.1,14.3,0.1,28.6,0,42.9c0.1,4.2-2.4,8.1-6.4,9.7
				c-0.8,0.2-1.2,1-1.1,1.8c0.7,15.9,7.4,30.9,18.8,41.9c8,7.9,18,13.5,29,16c0.8,0.3,1.6-0.1,1.9-0.8c3.1-5,8.9-7.6,14.7-6.6
				c6,0.5,11.1,4.7,12.7,10.6c1.2,4,0.2,8.3-2.7,11.3c-6.1,6.4-16.1,6.6-22.5,0.6c-0.4-0.4-0.9-0.9-1.3-1.4c-0.9-1.3-1.5-2.6-2-4.1
				c-0.2-0.7-0.8-1.2-1.5-1.3c-26.9-7.1-44.4-23.9-52-50.8c-1-4.3-1.7-8.6-2.1-12.9c-0.1-0.8-0.1-1.5-0.2-2.4h-9.6
				c-0.7,0-1.4,0-2.1,0c-1.9,0.1-3.6-1.5-3.6-3.4c0-0.1,0-0.1,0-0.2c-0.1-1.2-0.1-2.4-0.1-3.6c0.1-1.1-0.2-1.4-1.2-1.7
				c-8.3-1.7-15.2-7.7-18-15.8c-3.2-9.1-0.6-19.3,6.6-25.8c3.2-3,7.2-5,11.6-5.9c0.9-0.2,1.2-0.5,1.1-1.5c-0.1-1.2-0.1-2.5,0-3.7
				c-0.1-1.9,1.5-3.6,3.4-3.7c0.1,0,0.3,0,0.4,0c3.4,0,6.8,0,10.3,0c1,0,1.4-0.2,1.3-1.3c0-4.3,0.6-8.5,1.8-12.6
				c0.4-1.7-0.1-2.5-1.9-2.5c-5.8,0-11.6,0-17.4,0c-11.3,0-22.6,0-33.9,0c-6.2,0.1-11.6-4.3-12.8-10.4c-0.2-1.2-0.3-2.3-0.3-3.5
				c0-18,0-36.1,0-54.1c-0.5-5.4,2.6-10.5,7.6-12.6c1.9-0.8,3.9-1.2,6-1.1c23.4-0.1,46.8,0,70.2,0c6.7,0,13.4,0,20,0
				c5.9-0.2,11.2,3.7,12.7,9.4c0.4,1.8,0.6,3.7,0.6,5.6c0.1,5.2,0,10.3,0,15.5C137.1,51.9,137.1,52.3,137.1,52.7 M117.6,115.4v-1.2
				c0-5.1,0-10.2,0-15.3c-0.2-2,1.2-3.8,3.1-4c0.3,0,0.5,0,0.8,0c0.9,0,1.8-0.1,2.8,0c1.4,0,2.7-0.5,3.7-1.6c1.5-1.7,2.2-3.8,2-6
				c0-4.1,0-8.1,0-12.2c0-13.6,0-27.2,0-40.8c0-1.2-0.4-2.4-1-3.5c-1.1-1.6-3.1-2.5-5-2.3c-12.4,0-24.7,0-37.1,0H33.5
				c-2.9-0.4-5.5,1.6-5.9,4.5c-0.1,0.4-0.1,0.9,0,1.3c0,18.1,0,36.2,0,54.3c0,0.8,0,1.5,0.2,2.3c0.7,2.4,3,4,5.5,3.9
				c17.2,0,34.3,0,51.4,0c1.8,0,3.7,0.5,5.2,1.6c8.7,6,17.3,12,26.1,17.9C116.5,114.7,116.9,114.9,117.6,115.4 M231.8,176.2v-49.8
				c-3.7,0-7.4-0.1-11,0c-2.1-0.1-3.8,1.4-3.9,3.5c0,0.2,0,0.5,0,0.7c0,9.1,0,18.3,0,27.4c0,4.7,0,9.3,0,14c-0.2,2,1.3,3.9,3.3,4.1
				c0,0,0.1,0,0.1,0C224.1,176.3,228,176.2,231.8,176.2 M76.8,175.8c3.7,0,7.1,0,10.6,0c2.1,0.3,4-1.1,4.3-3.2
				c0.1-0.4,0.1-0.7,0-1.1c0-3.2,0-6.4,0-9.7c0-10.5,0-20.9,0-31.4c0.3-2.1-1.1-4.1-3.2-4.4c-0.4-0.1-0.8-0.1-1.2,0
				c-3.1,0-6.3,0-9.4,0c-0.9,0-1.2,0.3-1.2,1.2c0,15.9,0,31.8,0,47.7C76.7,175.1,76.8,175.3,76.8,175.8 M239.5,167.5
				c8.3-1.7,13.9-9.4,13-17.8c-0.6-6.8-7.2-14.2-13-14.4V167.5z M69.1,134.7c-8.9,2.2-14.5,11.1-12.6,20c1.3,6.1,8.4,13,12.6,12.2
				V134.7z M154.5,253.4c2,0,3.9-0.7,5.3-2.1c1.9-1.8,2.1-4.8,0.4-6.7c-0.1-0.1-0.2-0.2-0.3-0.3c-3.3-3-8.5-2.7-11.5,0.6
				c0,0.1-0.1,0.1-0.1,0.1c-1.4,1.6-1.4,4,0.1,5.6C149.8,252.5,152.1,253.5,154.5,253.4"/>
			<path class="st0" d="M154.6,263.6c-4.4,0-8.9-1.6-12.3-4.9c-0.5-0.5-1-1-1.4-1.5l-0.1-0.2c-0.9-1.4-1.7-2.9-2.2-4.6l0,0l-0.1,0
				c-27.7-7.3-45.7-24.8-53.5-52.1l0-0.1c-1-4.3-1.7-8.7-2.2-13.1c0-0.2-0.1-0.4-0.1-0.6l-8.4,0c-0.5,0-0.9,0-1.4,0
				c-1.5,0-2.8-0.5-3.9-1.5c-1.1-1-1.7-2.4-1.7-3.8c0-0.1,0-0.1,0-0.2c-0.1-1.2-0.1-2.3-0.1-3.5c-8.8-1.9-16.1-8.4-19.1-17
				c-3.5-9.9-0.7-20.9,7.2-28c3.4-3.1,7.5-5.3,12-6.3c-0.1-1.1-0.1-2.3,0-3.4c0-3,2.3-5.5,5.4-5.6c0.2,0,0.3,0,0.5,0
				c3.2,0,6.4,0,9.6,0c0.1-4.2,0.7-8.4,1.8-12.5h0c-3.9,0-7.7,0-11.6,0l-39.7,0c-7.2,0.1-13.4-4.9-14.7-12c-0.2-1.3-0.3-2.6-0.3-3.9
				c0-8.6,0-17.3,0-25.9c0-9.4,0-18.7,0-28.1c-0.5-6.2,3-12.1,8.8-14.5c2.2-0.9,4.5-1.4,6.8-1.3c20.3-0.1,41,0,61,0l9.2,0l5.9,0
				c4.7,0,9.4,0,14.2,0c6.8-0.2,12.8,4.2,14.6,10.9c0.5,2.1,0.7,4.1,0.6,6.1c0,3.4,0,6.9,0,10.3c0,1.3,0,2.6,0,4
				c0.3,0,0.5-0.1,0.8-0.1c2.2-0.4,4.4-0.8,6.6-1.1c6.3-0.8,12.6-0.7,18.9,0.4c16.6,2.6,31.7,11.1,42.7,23.7
				c9,10.1,14.9,22.5,17.1,35.9c0.4,2.5,0.6,5,0.8,7.3c3.1,0,6.2,0,9.2,0c1.4-0.2,2.9,0.2,4,1.1c1.2,0.9,2,2.2,2.2,3.7
				c0.1,0.5,0.1,1,0,1.5l0,0.7c0,0.7,0,1.4,0,2.1c8.7,1.9,15.7,8,18.9,16.4c5,13.2-1.3,27.9-14.4,33.3c-1.6,0.6-3.2,1.1-4.9,1.5
				c0.1,1.1,0.1,2.1,0,3.1c0.2,3.1-2.1,5.8-5.2,6c-0.3,0-0.6,0-0.9,0h-0.2c-4.8,0-9.8,0-14.7-0.1c-6.9,0-12.6-5.4-12.9-12.3
				c-0.2-3.6-0.1-7.2-0.1-10.6c0-1.3,0-2.6,0-3.9c0-3.1,0-6.2,0-9.3c0-6.1,0-12.3,0-18.5c-0.2-5.3,2.7-10.3,7.4-12.7
				c-0.5-12.9-5.3-25.4-13.5-35.3c-8-9.9-18.6-16.9-30.9-20.2c-10.3-2.9-21.1-2.9-31.3-0.1c0,2.8,0,5.6,0,8.4
				c0,5.9-0.1,12.1,0.1,18.1c0.3,7.4-4.9,13.8-12,15v0.8c0,5.8,0,11.5,0,17.3c0.3,3-1.9,5.7-4.9,6.1c-1.5,0.2-3-0.3-4.1-1.2
				c-7.7-5.3-15.5-10.5-23.2-15.8c-0.1,0.3-0.1,0.6-0.2,0.9c-0.2,1.4-0.3,2.8-0.4,4.2c-0.1,0.7-0.1,1.3-0.2,2
				c4.6,2,7.5,6.6,7.4,11.7c0.1,14.1,0.1,28.6,0,42.8c0.1,4.9-2.9,9.5-7.4,11.5c0.7,15.4,7.2,29.8,18.2,40.6
				c7.7,7.6,17.4,13,27.9,15.5c3.6-5.6,10-8.5,16.5-7.4c6.8,0.6,12.6,5.4,14.3,12c1.4,4.6,0.2,9.7-3.2,13.2
				C164,261.8,159.3,263.6,154.6,263.6z M144,254.7c0.3,0.4,0.7,0.8,1,1.1c5.6,5.3,14.4,5.1,19.6-0.5c2.4-2.5,3.3-6.1,2.3-9.3
				c-1.4-5.1-5.8-8.7-10.9-9.2l-0.1,0c-5-0.8-9.9,1.4-12.6,5.6c-0.8,1.6-2.6,2.3-4.2,1.7c-11.3-2.6-21.6-8.4-29.8-16.5
				c-11.7-11.4-18.6-26.8-19.4-43.1c-0.3-1.7,0.7-3.4,2.3-3.9c3.1-1.3,5.2-4.4,5.1-7.8c0.1-14.3,0.1-28.7,0-42.9
				c0.1-3.6-2-6.8-5.3-8.1c-1.9-0.8-2.2-2.2-2.1-3.3c0.1-0.8,0.1-1.7,0.2-2.5c0.1-1.4,0.2-2.9,0.4-4.4l0-0.1
				c0.2-1.4,0.6-2.7,0.9-4.1l0.8-2.6l2.8,1.8c0.3,0.2,0.5,0.3,0.7,0.5c8.1,5.6,16.3,11.1,24.4,16.7l0.2,0.1c0.3,0.3,0.8,0.4,1.2,0.4
				c0.9-0.1,1.5-0.9,1.4-1.8l0-0.2c0-5.8,0-11.6,0-17.4v-3.6l1.1-0.6c0.2-0.1,0.5-0.2,0.7-0.3l0.4-0.1c5.8-0.4,10.1-5.3,9.9-11.1
				c-0.2-6.1-0.1-12.3-0.1-18.3c0-2.9,0-5.8,0-8.6c0-1.8,0.8-3,2.4-3.4c11.1-3.2,22.8-3.2,34,0c13,3.6,24.4,11,32.9,21.6
				c8.9,10.7,14,24.2,14.4,38.1v0.1l0,0.1c-0.1,1.1-0.7,2.2-1.6,2.8l-0.3,0.2c-3.6,1.7-5.7,5.3-5.6,9.2c0.1,6.2,0.1,12.5,0,18.6
				c0,3.1,0,6.2,0,9.3c0,1.3,0,2.6,0,4c0,3.4,0,7,0.1,10.4c0.2,4.8,4.2,8.5,9,8.5c4.9,0.1,9.9,0.1,14.6,0.1h0.4l0.1,0
				c0.1,0,0.2,0,0.3,0c0.9-0.1,1.6-0.9,1.5-1.8l0-0.1v-0.1c0-1.1,0-2.2-0.1-3.3c-0.1-1.2,0.2-2.9,2.7-3.6c1.7-0.4,3.2-0.9,4.8-1.4
				c11-4.6,16.4-16.9,12.1-28.1c-2.7-7.2-8.8-12.5-16.4-14c-2.5-0.6-2.9-2.3-2.8-3.5c0.1-0.7,0-1.5,0-2.3l0-1l0-0.2
				c0-0.2,0-0.3,0-0.5c-0.1-0.4-0.3-0.8-0.6-1.1s-0.8-0.4-1.2-0.3l-0.2,0h-0.2c-3.3,0-6.7,0-10,0c0,0-0.1,0-0.1,0
				c-2,0-3.1-1.1-3.2-3.1c-0.1-2.4-0.3-5-0.8-7.6c-2-12.7-7.6-24.4-16.1-33.9c-10.4-12-24.8-19.9-40.4-22.4
				c-5.9-1-11.8-1.1-17.7-0.4c-2.1,0.3-4.2,0.6-6.4,1c-1,0.2-2.1,0.4-3.2,0.6l-0.3-2h-2v-1.2c0-1.7,0-3.4,0-5.2c0-3.4,0-6.8,0-10.3
				c0-1.8-0.2-3.5-0.5-5.2c-1.3-4.8-5.6-8-10.7-7.8c-4.8,0-9.5,0-14.2,0l-5.9,0l-9.2,0c-20,0-40.7,0-61,0c-1.8,0-3.6,0.3-5.2,1
				c-4.2,1.8-6.7,6-6.3,10.6l0,0.2c0,9.4,0,18.8,0,28.2c0,8.7,0,17.3,0,26c0,1.1,0.1,2.1,0.2,3.1c1,5.1,5.5,8.8,10.8,8.7l39.8,0
				c3.9,0,7.7,0,11.6,0c1.6,0,2.7,0.5,3.4,1.4s0.9,2.1,0.5,3.6c-1.2,4-1.7,8-1.7,12.1c0,0.7-0.1,1.7-0.8,2.5c-0.8,0.9-2,0.9-2.5,0.9
				c-3.4,0-6.8-0.1-10.2,0H73l-0.1,0c-0.1,0-0.1,0-0.2,0c-0.8,0-1.5,0.7-1.5,1.6v0.1l0,0.1c-0.1,1.2-0.1,2.3,0,3.5
				c0.2,1.9-0.8,3.2-2.7,3.6c-3.9,0.8-7.6,2.7-10.6,5.4c-6.7,6-9,15.2-6.1,23.7c2.6,7.4,8.9,12.9,16.5,14.5c2.1,0.5,3,1.8,2.8,3.9
				c-0.1,1,0,2.1,0.1,3.2l0,0.1v0.1c0,0.9,0.7,1.6,1.6,1.5h0.1h0.1c0.4,0,0.8,0,1.3,0l0.7,0h11.4l0.2,1.8c0,0.3,0,0.6,0.1,0.9
				c0,0.5,0.1,1,0.1,1.4l0,0.1c0.4,4.2,1.1,8.5,2.1,12.6c7.4,25.8,24.4,42.4,50.6,49.3c1.4,0.3,2.5,1.3,2.9,2.7
				C142.7,252.5,143.3,253.6,144,254.7z M84.6,104.3L84.6,104.3L84.6,104.3z M154.2,255.4c-2.9,0-5.6-1.2-7.4-3.4
				c-2-2.3-2.1-5.9-0.1-8.2l0.2-0.2c3.7-4.1,10.2-4.5,14.3-0.7c0.2,0.2,0.3,0.3,0.5,0.5c1.2,1.3,1.8,3.1,1.7,4.9s-0.9,3.5-2.2,4.7
				c-1.8,1.7-4.2,2.6-6.7,2.6C154.4,255.4,154.3,255.4,154.2,255.4z M154.4,244.2c-1.7,0-3.4,0.7-4.6,2l-0.1,0.1
				c-0.7,0.9-0.7,2.2,0,3c1.2,1.4,2.9,2.1,4.6,2.1h0.1h0.1c1.4,0,2.9-0.5,3.9-1.5c0.6-0.5,0.9-1.2,0.9-1.9s-0.2-1.4-0.7-2
				c-0.1-0.1-0.1-0.1-0.2-0.2C157.4,244.7,155.9,244.2,154.4,244.2z M225.1,178.2c-1.6,0-3.2,0-4.8-0.1l-0.2,0
				c-3.1-0.3-5.4-3.1-5.1-6.2c0-3.1,0-6.2,0-9.2l0-31.9c0-0.3-0.1-0.6,0-1c0.1-1.5,0.8-2.9,1.9-3.9c1.1-1,2.6-1.5,4-1.4
				c2.6-0.1,5.2-0.1,7.7,0c1.1,0,2.2,0,3.3,0h2v51.8h-2v2c-1.1,0-2.3,0-3.4,0C227.3,178.2,226.2,178.2,225.1,178.2z M220.6,128.4
				c-0.9,0-1.7,0.7-1.7,1.6c0,0.1,0,0.2,0,0.3l0,0.3l0,32.1c0,3.1,0,6.2,0,9.3v0.1l0,0.1c-0.1,0.9,0.6,1.8,1.5,1.9
				c2.6,0.1,5.3,0.1,8,0.1c0.5,0,1,0,1.4,0v-45.8c-0.4,0-0.9,0-1.3,0c-2.6,0-5.1,0-7.6,0h-0.1L220.6,128.4
				C220.6,128.4,220.6,128.4,220.6,128.4z M88,177.8c-0.2,0-0.5,0-0.7,0H76.8v-2l-2,0.2l0-0.3c0-0.3-0.1-0.5-0.1-0.8
				c0-15.9,0-31.8,0-47.7c0-0.7,0.1-1.6,0.8-2.4c0.8-0.8,2-0.8,2.3-0.8c2.4,0,4.7,0,7.1,0h2.2c0.6-0.1,1.1-0.1,1.7,0
				c1.6,0.2,2.9,1.1,3.8,2.3c0.9,1.2,1.3,2.7,1.1,4.2c0,10.4,0,20.8,0,31.2v3.2c0,2.1,0,4.2,0,6.3c0.1,0.5,0.1,1,0,1.5
				c-0.2,1.5-1,2.9-2.3,3.8C90.4,177.4,89.2,177.8,88,177.8z M78.7,173.8l9,0c0.5,0.1,0.9-0.1,1.3-0.3s0.6-0.7,0.7-1.2
				c0-0.2,0-0.4,0-0.5l0-0.1v-0.1c0-2.1,0-4.3,0-6.4v-3.2c0-10.5,0-20.9,0-31.4l0-0.3c0.1-0.5,0-1-0.3-1.4c-0.3-0.4-0.7-0.7-1.2-0.8
				c-0.2,0-0.4,0-0.6,0l-0.3,0H85c-2.1,0-4.2,0-6.3,0C78.8,143.2,78.8,158.5,78.7,173.8z M237.5,169.9v-36.8l2.1,0.1
				c6.7,0.2,14.2,8.4,14.9,16.3c1,9.4-5.2,18-14.6,20L237.5,169.9z M241.5,137.7v27.1c5.9-2.4,9.7-8.4,9-14.9
				C250,144.9,245.6,139.3,241.5,137.7z M68.5,169c-5.6,0-12.7-7.6-13.9-13.9c-2-10.1,4.1-19.9,14.1-22.4l2.5-0.6v36.5l-1.7,0.3
				C69.2,169,68.8,169,68.5,169z M67.1,137.4c-6.4,2.8-10.1,9.8-8.7,16.8c1,4.6,5.6,9.2,8.7,10.4V137.4z M116.6,117.1l-0.6-0.4
				c-0.4-0.2-0.7-0.5-1.1-0.7c-8.7-5.9-17.4-12-26.1-17.9c-1.2-0.8-2.6-1.3-4-1.2c-17.2,0-34.3,0-51.5,0c-3.4,0.2-6.5-2-7.4-5.3
				l0-0.1c-0.2-0.9-0.3-1.8-0.3-2.8c0-18,0-36.1,0-54.2c-0.1-0.6,0-1.2,0-1.7c0.3-1.9,1.2-3.6,2.8-4.8c1.5-1.1,3.4-1.6,5.2-1.4
				l65.5,0c8.2,0,16.4,0,24.6,0c2.7-0.3,5.2,0.9,6.8,3.1l0.1,0.1c0.8,1.4,1.3,2.9,1.3,4.5c0,9.9,0,20,0,29.7l0,11.1c0,2,0,4.1,0,6.1
				c0,2,0,4,0,6c0.2,2.7-0.7,5.4-2.5,7.4c-1.4,1.5-3.2,2.3-5.2,2.2c-0.8,0-1.7,0-2.7,0l-0.1,0l-0.1,0c-0.1,0-0.2,0-0.4,0
				c-0.9,0.1-1.5,0.9-1.4,1.8l0,0.1v0.1c0,3.1,0,6.1,0,9.2c0,2.1,0,4.1,0,6.1v1.2h-2L116.6,117.1z M85,92.8c2.1,0,4.3,0.7,6.1,1.9
				c8.1,5.6,16.3,11.3,24.5,16.9c0-1.2,0-2.4,0-3.6c0-3,0-6.1,0-9.1c-0.3-3,1.9-5.7,4.9-6.1c0.4,0,0.7-0.1,1.1,0c1,0,1.9,0,2.8,0
				c0.8,0,1.6-0.3,2.2-0.9c1.1-1.2,1.6-2.8,1.5-4.5l0-0.2c0-2,0-4.1,0-6.1c0-2,0-4.1,0-6.1l0-11.1c0-9.7,0-19.8,0-29.7
				c0-0.8-0.3-1.7-0.7-2.4c-0.7-1-1.9-1.5-3.1-1.4l-0.2,0c-8.2,0-16.5,0-24.7,0l-65.9,0c-0.9-0.1-1.7,0.1-2.4,0.6
				c-0.7,0.5-1.1,1.3-1.3,2.1c0,0.3,0,0.5,0,0.8l0,0.2c0,18.1,0,36.2,0,54.3c0,0.6,0,1.2,0.2,1.8c0.5,1.5,1.9,2.5,3.4,2.4h0.1
				c17.2,0,34.3,0,51.4,0C84.8,92.8,84.9,92.8,85,92.8z"/>
		</g>
		<g>
			<path id="Tracé_409_00000011011717706623385520000012263831690636051644_" class="st0" d="M78.5,65.3H47c-0.7,0-1.4,0-2-0.1
				c-2-0.2-3.5-2-3.4-4c0.2-1.8,1.5-3.2,3.3-3.4c0.6-0.1,1.1-0.1,1.7-0.1c14.1,0,28.2,0,42.3,0c7.5,0,15,0,22.5,0
				c3,0,4.7,1.6,4.5,4.2c-0.1,1.7-1.4,3.1-3.1,3.2c-1.4,0.1-2.8,0.1-4.2,0.1C98.4,65.3,88.5,65.3,78.5,65.3L78.5,65.3"/>
			<path class="st0" d="M93.4,67.3c-5,0-10,0-15,0l-31.5,0c-0.7,0-1.5,0-2.2-0.1c-1.5-0.1-2.9-0.8-3.9-2s-1.5-2.6-1.3-4.2
				c0.2-2.7,2.3-4.9,5-5.2c0.6-0.1,1.3-0.1,1.9-0.1c14.1,0,28.2,0,42.2,0h22.5c2.2,0,3.9,0.7,5.1,2c1.1,1.2,1.5,2.7,1.4,4.4
				c-0.1,2.7-2.2,4.9-4.9,5.1c-1.4,0.1-2.8,0.1-4.2,0.1h-0.2C103.4,67.3,98.4,67.3,93.4,67.3z M78.5,63.3c10,0,20,0,29.9,0h0.2
				c1.3,0,2.6,0,3.8-0.1c0.7,0,1.2-0.6,1.2-1.3l0-0.1c0.1-0.6-0.1-1.1-0.3-1.4c-0.4-0.4-1.2-0.7-2.2-0.7H88.7c-14.1,0-28.2,0-42.3,0
				c-0.5,0-1,0-1.5,0.1c-0.8,0.1-1.4,0.7-1.5,1.5c0,0.5,0.1,0.9,0.4,1.2c0.3,0.3,0.7,0.6,1.2,0.6c0.6,0,1.2,0,1.9,0L78.5,63.3z"/>
		</g>
		<g>
			<path id="Tracé_410_00000173142578264210089800000015418006801284289465_" class="st0" d="M78.5,46.9c-10.3,0-20.6,0-30.9,0
				c-1,0-2,0-3-0.1c-1.9-0.2-3.2-1.9-3-3.7c0,0,0-0.1,0-0.1c-0.1-1.8,1.3-3.4,3.1-3.5c0,0,0,0,0,0c2.4-0.2,4.9-0.2,7.4-0.2
				c8.3,0,16.7,0,25,0c8.6,0,17.2,0,25.8,0h8.3c2.9,0,4.6,1.5,4.5,4c0.1,1.8-1.3,3.3-3.1,3.4c0,0-0.1,0-0.1,0
				c-3.6,0.1-7.2,0.1-10.9,0.1C93.9,47,86.2,47,78.5,46.9"/>
			<path class="st0" d="M93.9,49c-2.6,0-5.2,0-7.7,0h-7.7v-4h7.7c5.2,0,10.3,0,15.4,0h1.2c3.1,0,6.4,0,9.6-0.1
				c0.4,0,0.7-0.2,0.9-0.4s0.3-0.6,0.3-0.9v-0.1v-0.1c0-0.6-0.1-1-0.4-1.3c-0.4-0.4-1.2-0.6-2.1-0.6l-44.2,0c-5,0-10,0-15,0h-0.4
				c-2.3,0-4.6,0-6.8,0.2h0c-0.4,0-0.7,0.2-0.9,0.4c-0.2,0.3-0.3,0.6-0.3,0.9l0,0.2l0,0.2c0,0.4,0.1,0.8,0.3,1.1s0.6,0.5,1,0.5
				c0.9,0.1,1.8,0.1,2.7,0.1h31v4H47.6c-1,0-2.2,0-3.2-0.1c-1.4-0.2-2.7-0.8-3.6-2c-0.9-1.1-1.3-2.5-1.2-3.9c0-1.3,0.5-2.6,1.4-3.7
				c1-1,2.2-1.7,3.7-1.8c2.4-0.2,4.8-0.2,7.1-0.2H52c5,0,10,0,15,0l44.2,0c2.1,0,3.8,0.6,5,1.8c1,1.1,1.6,2.5,1.5,4.1
				c0.1,1.4-0.4,2.7-1.3,3.7c-0.9,1-2.2,1.7-3.6,1.7l-0.1,0c-3.2,0.1-6.5,0.1-9.7,0.1h-1.2C99.1,49,96.5,49,93.9,49z"/>
		</g>
		<g>
			<path id="Tracé_411_00000138570552079510577440000005599512285510038457_" class="st0" d="M78.4,76.1c5.8,0,11.7,0,17.5,0
				c5.2,0,10.4,0,15.6,0c2.1-0.3,4,1.2,4.2,3.3c0,0.1,0,0.1,0,0.2c0.3,1.9-1,3.7-2.9,3.9c-0.2,0-0.4,0-0.6,0c-1.2,0.1-2.5,0-3.7,0
				c-20.7,0-41.5,0-62.2,0c-0.6,0-1.1,0-1.7-0.1c-1.9-0.2-3.3-2-3-3.9c0,0,0,0,0,0c0-1.8,1.5-3.3,3.3-3.3c0,0,0.1,0,0.1,0
				c8.8,0,17.6,0,26.4,0h7L78.4,76.1"/>
			<path class="st0" d="M110.3,85.7c-0.3,0-0.7,0-1,0h-0.9c-20.7,0-41.4,0-62.2,0c-0.6,0-1.3,0-1.9-0.1c-1.5-0.2-2.8-0.9-3.7-2.1
				c-0.9-1.1-1.3-2.6-1.1-4c0-1.4,0.6-2.7,1.5-3.6c1-1,2.3-1.6,3.8-1.6H45c6.3,0,12.8,0,19.2,0h14.2v-0.1h17.5c5.2,0,10.3,0,15.5,0
				c1.5-0.2,2.9,0.3,4.1,1.2c1.2,0.9,2,2.3,2.2,3.9c0,0.1,0,0.2,0,0.2c0.2,1.4-0.2,2.8-1,4c-0.9,1.2-2.2,1.9-3.6,2.2
				c-0.3,0-0.6,0.1-0.8,0.1C111.6,85.7,110.9,85.7,110.3,85.7z M46.2,81.6c20.8,0,41.5,0,62.2,0h1c0.9,0,1.8,0,2.7,0l0.1,0h0.1
				c0.1,0,0.2,0,0.2,0c0.4-0.1,0.7-0.3,1-0.6c0.2-0.3,0.3-0.7,0.3-1.1l0-0.2c-0.1-0.5-0.3-0.9-0.7-1.2s-0.8-0.4-1.3-0.4l-0.1,0h-0.1
				c-5.2,0-10.4,0-15.6,0H80.4v0.1H64.2c-6.4,0-12.8,0-19.2,0h-0.1c-0.3,0-0.7,0.1-0.9,0.4s-0.4,0.6-0.4,0.9v0.1l0,0.1
				c-0.1,0.4,0,0.8,0.3,1.2s0.6,0.5,1,0.6C45.3,81.6,45.7,81.6,46.2,81.6z"/>
		</g>
	</g>
</g>
</svg>
