<?xml version="1.0" encoding="UTF-8" standalone="no"?>
<!-- Generator: Adobe Illustrator 28.0.0, SVG Export Plug-In . SVG Version: 6.00 Build 0)  -->

<svg
   version="1.1"
   id="OBJECT"
   x="0px"
   y="0px"
   width="283.46px"
   height="283.46px"
   viewBox="0 0 283.46 283.46"
   style="enable-background:new 0 0 283.46 283.46;"
   xml:space="preserve"
   sodipodi:docname="Picto-Zoning_orange.svg"
   inkscape:version="1.3.2 (091e20e, 2023-11-25, custom)"
   xmlns:inkscape="http://www.inkscape.org/namespaces/inkscape"
   xmlns:sodipodi="http://sodipodi.sourceforge.net/DTD/sodipodi-0.dtd"
   xmlns="http://www.w3.org/2000/svg"
   xmlns:svg="http://www.w3.org/2000/svg"><defs
   id="defs1" /><sodipodi:namedview
   id="namedview1"
   pagecolor="#505050"
   bordercolor="#eeeeee"
   borderopacity="1"
   inkscape:showpageshadow="0"
   inkscape:pageopacity="0"
   inkscape:pagecheckerboard="0"
   inkscape:deskcolor="#505050"
   inkscape:zoom="4.1381501"
   inkscape:cx="141.60917"
   inkscape:cy="141.73"
   inkscape:window-width="2560"
   inkscape:window-height="1369"
   inkscape:window-x="1912"
   inkscape:window-y="-8"
   inkscape:window-maximized="1"
   inkscape:current-layer="OBJECT" />
<style
   type="text/css"
   id="style1">
	.st0{fill:#153E8B;}
</style>
<path
   class="st0"
   d="M213.34,235.18l8.82,8.82c1.39,1.39,1.39,3.63,0,5.02c-1.39,1.39-3.63,1.39-5.02,0l-8.87-8.82  c-11.81,7.86-27.84-0.59-27.84-14.91c0-9.89,8.02-17.9,17.9-17.9C212.76,207.34,221.2,223.32,213.34,235.18z M198.43,214.39  c-9.62,0-14.48,11.7-7.64,18.49c6.84,6.79,18.49,1.98,18.49-7.64C209.23,219.26,204.42,214.39,198.43,214.39L198.43,214.39z   M142.96,195.64c6.79,0,12.72,4.33,14.91,10.58c19.99-12.24,41.36-20.57,64.13-23.78l-5.82-34.79h-45.21  c-9.14,14.11-18.49,26.56-25.22,34.63c-1.44,1.71-4.06,1.66-5.45-0.05c-6.73-8.07-16.03-20.52-25.17-34.58H78.09l-7.43,42  c20.89,0.96,40.45,6.15,57.18,17.47C129.66,200.44,135.8,195.64,142.96,195.64z M158.46,214.13c-2.19,12.45-17.63,17.42-26.67,8.39  c-1.82-1.82-3.21-4.06-3.95-6.57c-7.86-5.99-16.67-10.58-26.51-13.79c-9.73-3.21-20.41-4.97-32.06-5.45l-11.44,64.88h177.42  l-12.13-72.14C200.09,192.64,178.55,201.35,158.46,214.13L158.46,214.13z M149.11,205.25c-5.45-5.45-14.8-1.55-14.8,6.15  s9.35,11.6,14.8,6.15C152.48,214.13,152.48,208.62,149.11,205.25z M142.96,34.46c19.4,0,35.16,15.76,35.16,35.16  c0,19.45-15.76,35.16-35.16,35.16S107.8,89.02,107.8,69.63S123.56,34.46,142.96,34.46L142.96,34.46z M162.84,49.8  c-11.01-10.96-28.75-10.96-39.76,0s-11.01,28.75,0,39.76c10.96,10.96,28.75,10.96,39.76,0C173.8,78.55,173.8,60.75,162.84,49.8z   M142.96,8.92c33.56,0,60.71,27.2,60.71,60.71c0,20.95-15.5,50.34-28.27,70.97h43.71c1.82,0,3.37,1.39,3.53,3.21l20.31,120.72  c0.37,2.14-1.34,4.11-3.47,4.11H53.61c-2.19,0-3.9-1.98-3.47-4.33l21.43-120.83c0.32-1.71,1.76-2.94,3.47-2.94h35.48  c-12.77-20.63-28.27-50.02-28.27-70.97C82.26,36.12,109.4,8.92,142.96,8.92L142.96,8.92z M180.91,31.68  c-20.95-20.95-54.94-20.95-75.88,0c-9.73,9.73-15.71,23.14-15.71,37.94c0,29.5,35.11,81.76,53.65,104.85  c19.4-24.1,53.65-75.78,53.65-104.85C196.62,54.82,190.63,41.41,180.91,31.68z"
   id="path1"
   inkscape:label="path1"
   style="fill:#e84e0f;fill-opacity:1" />
</svg>
